<svg width="42" height="42" viewBox="0 0 42 42" fill="none" xmlns="http://www.w3.org/2000/svg">
<rect width="42" height="42" rx="5" fill="#E3FBEA"/>
<g clip-path="url(#clip0_1_265)">
<path d="M20.3126 12H21.6876C21.7505 12.014 21.8134 12.0317 21.8767 12.0421C22.5642 12.1512 23.2586 12.2125 23.9328 12.3756C28.7453 13.5377 32.5718 17.8535 33.3801 23.0068C33.4562 23.4914 33.5082 23.9808 33.5716 24.4675V26.0779C33.4734 26.0779 33.3751 26.0816 33.2769 26.0816C30.1177 26.0816 26.9585 26.08 23.7993 26.0769C23.594 26.0769 23.4869 26.1226 23.4 26.3366C23.2769 26.6541 23.0951 26.9423 22.8652 27.1845C22.6353 27.4266 22.362 27.6177 22.0614 27.7465C21.8158 27.8551 21.5501 27.9158 21.2938 27.9984H20.7045C20.65 27.9818 20.597 27.9605 20.5415 27.9465C19.6463 27.7584 18.9858 27.2364 18.6096 26.3569C18.5084 26.1205 18.3955 26.0727 18.1745 26.0732C14.9256 26.0788 11.6767 26.0788 8.42773 26.0732V24.4675C8.49059 23.9803 8.54068 23.4914 8.61827 23.0068C9.4968 17.5158 13.6537 13.1294 18.8576 12.2016C19.3403 12.1174 19.8275 12.067 20.3126 12ZM23.5812 24.5091H32.0679C31.9737 22.9854 31.5954 21.4965 30.9547 20.1283C30.4027 20.4634 29.8684 20.7881 29.3209 21.1216L28.5872 19.7751L30.2156 18.7745C29.4077 17.5036 28.3736 16.4112 27.171 15.5584L26.2271 17.279L24.9538 16.5023C25.2725 15.9164 25.5794 15.3517 25.8952 14.7719C24.5624 14.0904 23.2001 13.6925 21.7304 13.5984V15.5694H20.2522V13.5953C18.8095 13.6947 17.3997 14.0961 16.1047 14.7761C16.4219 15.3584 16.7268 15.919 17.0436 16.5023L15.7707 17.2816L14.8249 15.5569C13.6041 16.44 12.5979 17.4925 11.7867 18.7777L13.4131 19.7766L12.6765 21.121L11.0437 20.1288C10.4012 21.4965 10.0232 22.986 9.93189 24.5101H18.4274C18.4422 24.4727 18.4525 24.4488 18.4603 24.4244C18.945 22.9616 20.0701 22.2426 21.5207 22.4592C21.5875 22.4696 21.6975 22.3995 21.7358 22.3335C22.0795 21.7356 22.4149 21.1309 22.7518 20.5278L23.7722 18.7013L25.0392 19.494L22.9369 23.2644C23.0705 23.4722 23.2026 23.6525 23.3043 23.8483C23.4059 24.0442 23.4845 24.2748 23.5812 24.5091ZM19.8304 25.1844C19.8266 25.511 19.9449 25.8259 20.1597 26.0604C20.3745 26.295 20.6683 26.4302 20.977 26.4365C21.2856 26.4428 21.5841 26.3197 21.8073 26.0941C22.0305 25.8685 22.1603 25.5587 22.1684 25.2322C22.1881 24.5569 21.6685 23.9855 21.0222 23.9678C20.3878 23.9481 19.8412 24.5075 19.8304 25.1844Z" fill="#143E48"/>
<path d="M23.3041 23.85C23.2059 23.6614 23.0802 23.4895 22.952 23.2895L22.9368 23.2661L25.039 19.4957L23.7721 18.7009L22.7551 20.5232C22.4182 21.1264 22.0843 21.731 21.7391 22.329C21.6983 22.3889 21.6391 22.432 21.5716 22.451C21.5556 22.4554 21.5389 22.4566 21.5225 22.4547C20.0719 22.2386 18.9468 22.957 18.4621 24.4199C18.4543 24.4443 18.444 24.4682 18.4292 24.5056H18.4204C18.3662 24.7326 18.3388 24.9659 18.3389 25.2001C18.3384 25.5372 18.3955 25.8715 18.5073 26.1871C18.5499 26.2378 18.5842 26.2955 18.609 26.358C18.9851 27.2375 19.6456 27.7606 20.5408 27.9477C20.5953 27.9596 20.6474 27.9804 20.7009 27.9965H20.7093H21.2887H21.2956C21.551 27.9144 21.8157 27.8536 22.0607 27.7456C22.3615 27.6171 22.635 27.4263 22.8651 27.1845C23.0952 26.9426 23.2774 26.6546 23.4008 26.3373C23.4232 26.2762 23.4566 26.2203 23.4991 26.1726C23.6841 25.6367 23.7119 25.0542 23.5786 24.5014C23.4828 24.2702 23.4082 24.0515 23.3041 23.85ZM22.1682 25.2318C22.1602 25.5583 22.0304 25.8681 21.8072 26.0937C21.584 26.3193 21.2855 26.4424 20.9768 26.4361C20.6682 26.4298 20.3744 26.2946 20.1596 26.06C19.9448 25.8255 19.8264 25.5106 19.8303 25.184C19.8411 24.5087 20.3876 23.9492 21.0221 23.9674C21.6683 23.9861 22.1879 24.5586 22.1682 25.2318Z" fill="#143E48"/>
</g>
<defs>
<clipPath id="clip0_1_265">
<rect width="25.1429" height="16" fill="white" transform="translate(8.42856 12)"/>
</clipPath>
</defs>
</svg>
