<svg width="42" height="42" viewBox="0 0 42 42" fill="none" xmlns="http://www.w3.org/2000/svg">
<rect width="42" height="42" rx="5" fill="#E3FBEA"/>
<g clip-path="url(#clip0_1_273)">
<path d="M26.2307 9.5H27.2165C27.517 9.55308 27.8216 9.59124 28.1163 9.66142C30.5571 10.2382 32.3176 12.1179 32.7216 14.5642C33.0982 16.8452 31.954 19.2043 29.8574 20.4553C29.7162 20.5391 29.7225 20.6137 29.7522 20.7523C29.8601 21.2721 30.0001 21.7936 30.0275 22.3196C30.1139 23.9865 29.6091 25.4858 28.5212 26.7807C27.7195 27.7352 27.3195 28.8156 27.3514 30.0482C27.355 30.1982 27.3514 30.3487 27.3514 30.4943H23.3022V29.2121H19.2606V30.5H15.229C15.229 30.3302 15.224 30.1715 15.229 30.0127C15.2614 29.1577 14.8969 28.5186 14.1649 28.0475C13.1495 27.3939 12.3914 26.5122 11.8672 25.4437C11.7988 25.305 11.7273 25.252 11.568 25.2546C10.9768 25.2643 10.3861 25.2586 9.79492 25.2586V20.0057C10.3483 20.0057 10.9022 20.0092 11.4556 20.0026C11.5739 20.0026 11.7705 19.9961 11.7961 19.936C11.8938 19.7166 12.1282 19.5491 12.0184 19.2446C11.663 18.255 11.3336 17.2571 10.9948 16.2618C10.975 16.2035 10.962 16.1429 10.9413 16.067C11.6612 16.067 12.3554 16.0627 13.0505 16.067C13.741 16.0701 14.4212 16.231 15.0364 16.5368C15.094 16.568 15.1585 16.5851 15.2244 16.5864C15.2902 16.5878 15.3554 16.5735 15.4143 16.5447C16.1895 16.2303 17.0205 16.0678 17.8601 16.0666C18.7203 16.0613 19.5805 16.0666 20.4408 16.0666H20.6995C20.6995 15.6227 20.6657 15.1994 20.7053 14.7822C20.9235 12.4631 22.6701 10.4058 24.9619 9.76319C25.3772 9.64607 25.8078 9.58598 26.2307 9.5ZM17.9181 27.9019C20.1798 27.8141 22.4145 28.0137 24.6636 27.7518V29.1819H26.0426C26.1848 28.0038 26.6764 26.8917 27.4572 25.9819C28.1777 25.1422 28.6078 24.1021 28.6863 23.01C28.7425 22.3599 28.6617 21.7055 28.4488 21.087C28.3745 21.1028 28.3169 21.1129 28.2603 21.1273C27.4756 21.3225 26.6788 21.3905 25.8798 21.2589C23.5794 20.883 21.9772 19.6359 21.0742 17.5387C21.0234 17.4207 20.9694 17.3747 20.8349 17.3756C19.8545 17.3817 18.8746 17.3755 17.8947 17.3795C17.0817 17.3795 16.2998 17.5409 15.584 17.9164C15.274 18.0787 15.0531 18.0919 14.7489 17.8879C14.1784 17.5023 13.5207 17.3492 12.7994 17.3848C13.0365 18.0813 13.2692 18.7569 13.4946 19.4341C13.5198 19.5096 13.5346 19.6136 13.5013 19.6785C13.2251 20.2167 12.9367 20.7488 12.6294 21.326H11.1595V23.9461H12.6937C12.7081 23.968 12.7209 23.9909 12.732 24.0145C12.7603 24.0895 12.7868 24.1654 12.8138 24.2409C13.2143 25.3722 13.8977 26.299 14.9253 26.9632C15.7216 27.4777 16.2593 28.1615 16.4896 29.0687C16.5022 29.1169 16.5652 29.1889 16.6062 29.1897C17.0376 29.1985 17.4695 29.195 17.9181 29.195V27.9019ZM26.7337 10.8133C24.1368 10.8094 22.0159 12.8662 22.0096 15.3946C22.0033 17.923 24.1121 19.9961 26.7036 20.0053C29.3099 20.0145 31.4375 17.9511 31.4389 15.4126C31.4379 14.1951 30.9423 13.0276 30.0605 12.1656C29.1786 11.3036 27.9824 10.8174 26.7337 10.8133Z" fill="#143E48"/>
<path d="M15.2451 20.0156H16.5643V21.3017H15.2451V20.0156Z" fill="#143E48"/>
<path d="M27.2398 12.9436C27.409 12.9436 27.5682 12.941 27.728 12.9436C28.0263 12.9493 28.2377 13.152 28.2373 13.4262C28.2368 13.7003 28.024 13.906 27.7253 13.9087C27.4045 13.9131 27.0837 13.9087 26.7624 13.9087C26.4412 13.9087 26.2095 14.1214 26.2064 14.4079C26.2032 14.6943 26.4237 14.9018 26.7355 14.918C27.5003 14.957 28.0681 15.4216 28.2139 16.1261C28.3488 16.7897 27.9997 17.4297 27.3293 17.757C27.3033 17.7749 27.2812 17.7976 27.2642 17.8239C27.2472 17.8502 27.2357 17.8794 27.2304 17.91C27.2092 18.0092 27.2254 18.1158 27.2034 18.2145C27.1784 18.3264 27.1121 18.4255 27.0172 18.493C26.9222 18.5605 26.8052 18.5917 26.6882 18.5807C26.5711 18.5732 26.4607 18.5246 26.3773 18.444C26.2939 18.3634 26.2431 18.2562 26.2343 18.1421C26.228 18.0623 26.2343 17.9811 26.2343 17.8679C26.0349 17.8679 25.8491 17.8772 25.6647 17.8679C25.5506 17.8598 25.443 17.8129 25.3608 17.7354C25.2786 17.6579 25.2269 17.5547 25.2147 17.4438C25.2025 17.3356 25.2283 17.2266 25.288 17.1346C25.3477 17.0426 25.4377 16.9731 25.5432 16.9376C25.6282 16.9142 25.7163 16.9032 25.8046 16.9047C26.0867 16.9007 26.3688 16.9047 26.6509 16.9047C27.0108 16.9047 27.2385 16.7125 27.2434 16.4107C27.2484 16.1089 27.0256 15.9037 26.6734 15.8892C26.3391 15.8776 26.0181 15.7586 25.7605 15.5506C25.5029 15.3427 25.323 15.0575 25.2489 14.7395C25.1 14.0648 25.4258 13.3897 26.0633 13.0963C26.2064 13.0305 26.2468 12.9546 26.2347 12.816C26.2274 12.7354 26.2339 12.6541 26.254 12.5756C26.2839 12.4737 26.3477 12.3845 26.4354 12.3218C26.523 12.2592 26.6295 12.2267 26.7382 12.2295C26.847 12.2304 26.9523 12.2671 27.0371 12.3337C27.1218 12.4003 27.181 12.4928 27.2052 12.5962C27.2234 12.7113 27.235 12.8273 27.2398 12.9436Z" fill="#143E48"/>
<path d="M32.6488 14.1738C32.4106 13.1081 31.8793 12.1256 31.1119 11.3318C31.0858 11.3051 31.0597 11.2783 31.0327 11.2524C31.0057 11.2265 30.9823 11.2029 30.9567 11.1787C30.9311 11.1542 30.905 11.13 30.8789 11.1059C30.1047 10.3992 29.1546 9.90191 28.1227 9.66318C27.9117 9.61318 27.6966 9.5794 27.4816 9.54475C27.2893 9.52136 27.0944 9.50673 26.8967 9.50089H26.5584C26.3925 9.50527 26.2283 9.51624 26.0657 9.53378C25.6972 9.60353 25.3251 9.66231 24.9657 9.7632C24.5754 9.87295 24.1984 10.0231 23.8409 10.2111L23.8355 10.2141C23.8049 10.2304 23.7743 10.2466 23.7455 10.2633C23.6924 10.2927 23.6402 10.3225 23.5885 10.351L23.5264 10.3883C23.4859 10.4128 23.4454 10.4383 23.4054 10.4637C23.3653 10.4892 23.323 10.5172 23.283 10.5444L23.2272 10.5822L23.22 10.5874L23.1642 10.6269C23.1246 10.6545 23.0859 10.6831 23.0477 10.712L22.9901 10.7559C22.9088 10.8182 22.8292 10.8825 22.7512 10.9489C22.668 11.0195 22.587 11.0928 22.5078 11.1682C22.5046 11.1707 22.5016 11.1735 22.4988 11.1765C22.3177 11.3495 22.1476 11.533 21.9895 11.7262C21.9445 11.7823 21.8995 11.8393 21.8545 11.8968C21.8185 11.9446 21.7834 11.9924 21.7483 12.0411C21.7326 12.063 21.7168 12.085 21.7033 12.1078C21.1778 12.8683 20.8424 13.7383 20.7239 14.648C20.7239 14.6585 20.7225 14.6695 20.7198 14.6809C20.7162 14.7143 20.7126 14.7476 20.7095 14.7809C20.673 15.17 20.7 15.5644 20.7036 15.9758C20.7684 16.6306 20.9459 17.27 21.2287 17.8673C21.3367 18.0909 21.4569 18.3088 21.5886 18.52C21.5936 18.5283 21.599 18.5362 21.6039 18.5441C22.149 19.3886 22.9048 20.0845 23.8008 20.5667C24.6968 21.0489 25.7037 21.3015 26.7271 21.301C28.3325 21.301 29.8722 20.6793 31.0074 19.5725C32.1427 18.4658 32.7805 16.9647 32.7807 15.3994C32.7806 14.9875 32.7365 14.5768 32.6488 14.1738ZM26.705 20.0053C24.1117 19.9965 22.0048 17.9265 22.0111 15.3946C22.0174 12.8627 24.1383 10.8094 26.7352 10.8133C27.9839 10.8175 29.18 11.3038 30.0618 12.1658C30.9436 13.0277 31.4393 14.1952 31.4404 15.4126C31.4386 17.9511 29.3114 20.0145 26.705 20.0053Z" fill="#143E48"/>
</g>
<defs>
<clipPath id="clip0_1_273">
<rect width="23" height="22" fill="white" transform="translate(10 9)"/>
</clipPath>
</defs>
</svg>
