<svg width="42" height="42" viewBox="0 0 42 42" fill="none" xmlns="http://www.w3.org/2000/svg">
<rect width="42" height="42" rx="5" fill="#E3FBEA"/>
<g clip-path="url(#clip0_1_257)">
<path d="M9.99879 14.5529C10.0358 14.388 10.0672 14.2213 10.1107 14.058C10.2908 13.365 10.6866 12.7461 11.2416 12.2895C11.7966 11.833 12.4826 11.562 13.2018 11.5152C13.3231 11.5063 13.4449 11.5016 13.5663 11.5016C18.5203 11.5016 23.4743 11.5016 28.4283 11.5016C30.0636 11.5016 31.3912 12.4354 31.837 13.9174C31.9307 14.2224 31.9811 14.5388 31.9867 14.8576C32.0018 16.4991 31.9958 18.1406 31.9936 19.7821C31.9936 20.2949 31.6136 20.6796 31.1274 20.674C30.6411 20.6684 30.2796 20.2894 30.277 19.7872C30.2736 19.1133 30.277 18.4398 30.277 17.7504H11.7167V17.9833C11.7167 19.9945 11.7167 22.0055 11.7167 24.0164C11.7167 25.1014 12.4345 25.8224 13.5284 25.8258C15.2252 25.8305 16.922 25.8258 18.6184 25.8258C19.1111 25.8258 19.4309 26.0481 19.5458 26.4592C19.5781 26.5758 19.5847 26.698 19.5652 26.8174C19.5457 26.9369 19.5005 27.0507 19.4327 27.1512C19.3649 27.2518 19.2761 27.3366 19.1724 27.4C19.0686 27.4634 18.9523 27.5038 18.8314 27.5186C18.7313 27.5283 18.6307 27.5321 18.5302 27.5301C16.891 27.5301 15.251 27.5045 13.6123 27.537C11.5467 27.5797 10.1933 26.0579 10.0311 24.5835C10.0238 24.5492 10.0124 24.5159 9.99707 24.4843L9.99879 14.5529ZM30.2641 16.0175C30.2641 15.5722 30.2908 15.138 30.2568 14.7089C30.2198 14.2435 29.984 13.8636 29.6113 13.5704C29.2507 13.2862 28.8337 13.205 28.384 13.205C23.4584 13.2076 18.5325 13.2083 13.6063 13.2072C13.499 13.2061 13.3917 13.2104 13.2848 13.22C12.6053 13.2905 12.1229 13.6422 11.8527 14.2576C11.6031 14.8264 11.7554 15.4282 11.7115 16.0175H30.2641Z" fill="#143E48"/>
<path d="M25.8092 30.4997C25.6405 30.4711 25.4701 30.451 25.3044 30.4121C24.9194 30.3208 24.5665 30.1273 24.2836 29.8523C23.3845 28.9976 22.4869 28.1404 21.5906 27.2809C21.2373 26.9411 21.2033 26.4612 21.4912 26.109C21.8183 25.7116 22.3854 25.6847 22.7822 26.0573C23.4617 26.6984 24.136 27.3458 24.813 27.9903C25.0195 28.1869 25.2256 28.3843 25.4331 28.58C25.7343 28.8655 26.0355 28.8365 26.2813 28.4988C27.648 26.6048 29.0136 24.7101 30.378 22.8149C30.5644 22.556 30.7942 22.3846 31.1234 22.3825C31.4526 22.3803 31.7203 22.5256 31.8838 22.8162C32.0611 23.1316 32.034 23.4466 31.8253 23.7393C31.404 24.3308 30.9771 24.9184 30.5523 25.5077C29.6056 26.8185 28.6554 28.1257 27.7181 29.4424C27.2921 30.0408 26.7404 30.4057 25.9968 30.4707C25.9619 30.4771 25.9277 30.487 25.8948 30.5002L25.8092 30.4997Z" fill="#143E48"/>
</g>
<defs>
<clipPath id="clip0_1_257">
<rect width="22" height="19" fill="white" transform="translate(10 11.5)"/>
</clipPath>
</defs>
</svg>
