<svg width="219" height="218" viewBox="0 0 219 218" fill="none" xmlns="http://www.w3.org/2000/svg">
<g clip-path="url(#clip0_1_38)">
<path d="M109.5 217.942C169.699 217.942 218.5 169.154 218.5 108.971C218.5 48.7879 169.699 0 109.5 0C49.301 0 0.5 48.7879 0.5 108.971C0.5 169.154 49.301 217.942 109.5 217.942Z" fill="#B8EEC7"/>
<path d="M178.399 77.6861C196.173 77.6861 210.582 63.2811 210.582 45.5117C210.582 27.7423 196.173 13.3373 178.399 13.3373C160.625 13.3373 146.216 27.7423 146.216 45.5117C146.216 63.2811 160.625 77.6861 178.399 77.6861Z" fill="#E96F9E"/>
<path d="M168.184 51.3428H210.042C210.042 51.1059 210.041 50.8714 210.039 50.6428C210.025 48.6097 208.401 46.9682 206.399 46.9682C203.554 46.9682 201.247 44.6256 201.247 41.7366V38.0132C201.247 35.1242 198.94 32.7816 196.095 32.7816C193.25 32.7816 190.943 30.439 190.943 27.55V15.4822H163.583V25.3419C163.583 29.3558 161.345 33.0232 157.806 34.8099C154.267 36.5967 152.028 40.2642 152.028 44.278V52.7188L168.183 54.3068V51.3428H168.184Z" fill="#363E44"/>
<mask id="mask0_1_38" style="mask-type:alpha" maskUnits="userSpaceOnUse" x="146" y="13" width="65" height="65">
<path d="M178.399 77.6861C196.173 77.6861 210.582 63.2811 210.582 45.5117C210.582 27.7423 196.173 13.3373 178.399 13.3373C160.625 13.3373 146.216 27.7423 146.216 45.5117C146.216 63.2811 160.625 77.6861 178.399 77.6861Z" fill="#E96F9E"/>
</mask>
<g mask="url(#mask0_1_38)">
<path d="M212.83 79.2855H139.745V51.7701L176.945 44.3612L212.83 51.7701V79.2855Z" fill="white"/>
</g>
<path d="M187.382 26.0766C192.827 20.6337 192.827 11.8089 187.382 6.36596C181.938 0.923005 173.111 0.922996 167.666 6.36595C162.222 11.8089 162.222 20.6337 167.666 26.0766C173.111 31.5196 181.938 31.5196 187.382 26.0766Z" fill="#363E44"/>
<path d="M184.61 27.6845H170.737V51.5617H184.61V27.6845Z" fill="#BC8271"/>
<path d="M189.035 21.2892C189.035 28.7135 183.892 36.5451 177.547 36.5451C171.202 36.5451 166.058 28.7135 166.058 21.2892C166.058 13.8649 171.202 7.84589 177.547 7.84589C183.892 7.84589 189.035 13.8649 189.035 21.2892Z" fill="#BC8271"/>
<path d="M177.546 36.8071C175.221 36.8071 172.937 35.7888 170.941 33.8643C170.836 33.7631 170.833 33.5975 170.934 33.4927C171.035 33.3879 171.2 33.3855 171.305 33.4856C173.202 35.3148 175.36 36.2819 177.546 36.2819C179.924 36.2819 182.241 35.1553 184.245 33.0223C184.345 32.9163 184.51 32.9115 184.616 33.0104C184.722 33.1092 184.727 33.276 184.628 33.382C182.522 35.6233 180.074 36.8071 177.547 36.8071H177.546Z" fill="#363E44"/>
<path d="M182.002 11.8534L182.781 16.6505H188.947C188.931 10.354 183.821 5.25439 177.519 5.25439C171.217 5.25439 166.107 10.354 166.091 16.6505H181.396L182.002 11.8534Z" fill="#363E44"/>
<path d="M167.234 26.3937C168.764 25.6955 169.164 23.2866 168.126 21.0134C167.088 18.7402 165.006 17.4634 163.476 18.1617C161.946 18.8599 161.546 21.2688 162.584 23.542C163.621 25.8152 165.703 27.092 167.234 26.3937Z" fill="#BC8271"/>
<path d="M164.6 24.3237C164.54 24.3237 164.48 24.3034 164.43 24.2606C164.056 23.9414 163.739 23.5127 163.515 23.022C162.893 21.6596 163.169 20.1959 164.129 19.7576C164.494 19.5909 164.915 19.5873 165.344 19.7481C165.48 19.7993 165.549 19.9506 165.497 20.0863C165.446 20.2221 165.295 20.2912 165.159 20.24C164.864 20.1292 164.583 20.1268 164.347 20.2352C163.662 20.5472 163.5 21.7239 163.993 22.8041C164.186 23.2256 164.455 23.5925 164.771 23.8616C164.882 23.9557 164.895 24.1212 164.801 24.232C164.748 24.2927 164.674 24.3237 164.6 24.3237Z" fill="#363E44"/>
<path d="M166.832 26.4114C166.723 26.4114 166.619 26.3412 166.583 26.2316C166.062 24.656 165.796 22.9934 165.796 21.2892C165.796 20.4425 165.863 19.5957 165.994 18.7716C166.016 18.6287 166.15 18.5298 166.294 18.5536C166.437 18.5763 166.535 18.7108 166.512 18.8537C166.385 19.6505 166.32 20.4698 166.32 21.288C166.32 22.9363 166.576 24.544 167.08 26.0661C167.125 26.2042 167.052 26.3519 166.913 26.3983C166.886 26.4079 166.859 26.4114 166.831 26.4114H166.832Z" fill="#363E44"/>
<path d="M186.84 21.0248C185.802 23.2983 186.202 25.7076 187.732 26.4055C189.263 27.1033 191.344 25.8267 192.381 23.5532C193.419 21.2797 193.019 18.8704 191.489 18.1725C189.958 17.4746 187.877 18.7513 186.84 21.0248Z" fill="#BC8271"/>
<path d="M190.371 24.3237C190.297 24.3237 190.223 24.2927 190.171 24.232C190.077 24.1212 190.09 23.9557 190.201 23.8616C190.516 23.5925 190.785 23.2268 190.978 22.8041C191.472 21.7239 191.31 20.5484 190.625 20.2352C190.389 20.128 190.108 20.1292 189.812 20.24C189.676 20.2912 189.525 20.2221 189.474 20.0863C189.423 19.9506 189.492 19.7993 189.628 19.7481C190.056 19.5873 190.477 19.5897 190.843 19.7576C191.803 20.1959 192.078 21.6596 191.456 23.022C191.232 23.5139 190.915 23.9414 190.541 24.2606C190.491 24.3023 190.432 24.3237 190.371 24.3237Z" fill="#363E44"/>
<path d="M188.138 26.4114C188.111 26.4114 188.083 26.4067 188.056 26.3983C187.918 26.3531 187.844 26.2042 187.889 26.0661C188.394 24.544 188.649 22.9363 188.649 21.288C188.649 20.4698 188.585 19.6505 188.457 18.8537C188.435 18.7108 188.532 18.5763 188.675 18.5536C188.821 18.5298 188.953 18.6287 188.976 18.7716C189.107 19.5957 189.173 20.4425 189.173 21.2892C189.173 22.9934 188.909 24.656 188.386 26.2316C188.349 26.3424 188.246 26.4114 188.137 26.4114H188.138Z" fill="#363E44"/>
<path d="M177.777 27.9346C177.69 27.9346 177.605 27.8918 177.555 27.8132C177.478 27.6905 177.514 27.5285 177.636 27.4511C177.994 27.2236 178.209 26.9664 178.276 26.6841C178.345 26.3936 178.24 26.1554 178.081 25.7945C177.953 25.5051 177.808 25.1764 177.722 24.7358C177.613 24.1748 177.633 23.5806 177.783 22.9696C177.817 22.8291 177.96 22.7421 178.101 22.7767C178.242 22.8112 178.329 22.9529 178.294 23.0947C178.163 23.6306 178.144 24.1486 178.238 24.6345C178.313 25.0168 178.445 25.3169 178.562 25.5813C178.735 25.972 178.898 26.3423 178.787 26.8044C178.687 27.2236 178.395 27.5904 177.919 27.8929C177.875 27.9203 177.826 27.9334 177.778 27.9334L177.777 27.9346Z" fill="#363E44"/>
<path d="M176.227 30.4535C175.741 30.4535 175.275 30.2379 174.997 29.8413C174.674 29.3792 174.665 28.7385 174.971 28.2085C175.044 28.0835 175.205 28.0406 175.33 28.1133C175.455 28.1859 175.498 28.3467 175.425 28.4717C175.22 28.8254 175.221 29.2458 175.427 29.5412C175.71 29.9473 176.309 30.0509 176.791 29.7794C176.918 29.7079 177.078 29.7532 177.149 29.8794C177.22 30.0057 177.175 30.1664 177.049 30.2367C176.789 30.3832 176.503 30.4535 176.225 30.4535H176.227Z" fill="#363E44"/>
<path d="M166.181 15.5096C166.17 15.5096 166.159 15.5096 166.147 15.5072C166.003 15.4893 165.901 15.3583 165.92 15.2142C166.595 9.81808 170.845 5.64265 176.253 5.05909C176.396 5.04361 176.527 5.14722 176.542 5.29251C176.558 5.43661 176.454 5.56643 176.309 5.58191C171.144 6.13808 167.085 10.1265 166.441 15.2797C166.424 15.4131 166.311 15.5096 166.181 15.5096Z" fill="#BC8271"/>
<path d="M188.805 15.1368C188.679 15.1368 188.567 15.0451 188.546 14.9153C187.732 9.78234 183.54 5.92965 178.354 5.54736C178.21 5.53664 178.1 5.4104 178.111 5.2663C178.122 5.1222 178.246 5.01382 178.392 5.02335C183.823 5.4247 188.212 9.4584 189.065 14.8331C189.087 14.976 188.99 15.1106 188.847 15.1332C188.832 15.1356 188.819 15.1368 188.805 15.1368Z" fill="#BC8271"/>
<path d="M177.431 60.1817C187.638 60.1817 195.912 56.863 195.912 52.7693C195.912 48.6755 187.638 45.3569 177.431 45.3569C167.224 45.3569 158.95 48.6755 158.95 52.7693C158.95 56.863 167.224 60.1817 177.431 60.1817Z" fill="#BC8271"/>
<path d="M185.809 19.3563L185.779 19.3527C185.764 19.4147 185.722 19.4933 185.657 19.4921C185.578 19.585 185.542 19.735 185.49 19.8339C185.395 20.0125 185.124 19.8541 185.219 19.6755C185.284 19.5552 184.859 19.785 184.671 19.8565C184.077 20.0851 183.474 20.2864 182.864 20.4698C182.58 20.5556 182.295 20.6425 182.008 20.7187C181.778 20.7795 181.017 21.0188 180.957 20.9831C180.182 21.6929 179.754 22.3634 179.754 22.3634C179.754 22.3634 180.867 22.8565 182.303 22.9327C182.307 22.9136 182.312 22.8946 182.315 22.8743C182.349 22.6814 185.663 21.9001 185.752 22.0466C187.155 21.1534 187.962 19.8922 187.962 19.8922C187.962 19.8922 187.049 19.4873 185.809 19.3539V19.3563Z" fill="white"/>
<path d="M183.382 19.548C182.387 19.847 181.567 20.427 180.959 20.9831C181.034 21.6036 181.33 22.2003 181.842 22.6397C181.974 22.7529 182.113 22.8505 182.26 22.9327C182.908 22.9708 183.624 22.9255 184.335 22.7112C184.85 22.5564 185.314 22.3253 185.73 22.0621C186.26 21.2308 186.266 20.1816 185.78 19.3527C185.052 19.2777 184.215 19.2968 183.382 19.5469V19.548Z" fill="#363E44"/>
<path d="M169.563 19.5802L169.593 19.5778C169.608 19.6397 169.65 19.7184 169.715 19.7172C169.794 19.8101 169.83 19.9601 169.882 20.059C169.977 20.2376 170.248 20.0792 170.152 19.9006C170.088 19.7803 170.513 20.0101 170.7 20.0816C171.295 20.3102 171.898 20.5115 172.508 20.6949C172.792 20.7807 173.077 20.8676 173.364 20.9438C173.594 21.0046 174.355 21.2439 174.415 21.2082C175.19 21.918 175.618 22.5885 175.618 22.5885C175.618 22.5885 174.505 23.0816 173.069 23.159C173.065 23.1399 173.06 23.1209 173.057 23.1006C173.023 22.9077 169.709 22.1264 169.62 22.2729C168.217 21.3797 167.41 20.1185 167.41 20.1185C167.41 20.1185 168.323 19.7136 169.563 19.5802Z" fill="white"/>
<path d="M171.991 19.7719C172.985 20.0709 173.806 20.6509 174.414 21.207C174.339 21.8275 174.043 22.4242 173.531 22.8636C173.399 22.9768 173.259 23.0744 173.113 23.1566C172.465 23.1947 171.749 23.1494 171.038 22.9351C170.523 22.7803 170.058 22.5492 169.643 22.286C169.112 21.4547 169.107 20.4055 169.593 19.5766C170.32 19.5016 171.158 19.5207 171.991 19.7708V19.7719Z" fill="#363E44"/>
<path d="M169.324 160.946C180.083 150.19 180.083 132.751 169.324 121.996C158.566 111.24 141.122 111.24 130.364 121.996C119.605 132.751 119.605 150.19 130.364 160.946C141.122 171.701 158.566 171.701 169.324 160.946Z" fill="#F6D1BC"/>
<mask id="mask1_1_38" style="mask-type:alpha" maskUnits="userSpaceOnUse" x="122" y="113" width="56" height="57">
<path d="M169.324 160.946C180.083 150.19 180.083 132.752 169.324 121.996C158.566 111.24 141.122 111.24 130.364 121.996C119.605 132.752 119.605 150.19 130.364 160.946C141.122 171.701 158.566 171.701 169.324 160.946Z" fill="#363E44"/>
</mask>
<g mask="url(#mask1_1_38)">
<path d="M179.316 170.383H116.754V142.286L148.599 140.487L179.316 142.286V170.383Z" fill="white"/>
</g>
<path d="M156.852 126.211H141.594V146.651H156.852V126.211Z" fill="#E2A18D"/>
<path d="M149.015 149.458C155.697 149.458 161.114 147.286 161.114 144.606C161.114 141.926 155.697 139.754 149.015 139.754C142.333 139.754 136.917 141.926 136.917 144.606C136.917 147.286 142.333 149.458 149.015 149.458Z" fill="#E2A18D"/>
<path d="M141.341 120.207C142.526 121.979 142.264 124.234 140.756 125.243C139.248 126.251 137.063 125.632 135.878 123.86C134.693 122.088 134.955 119.833 136.463 118.825C137.971 117.816 140.156 118.435 141.341 120.207Z" fill="#E2A18D"/>
<path d="M157.036 120.167C155.86 121.945 156.133 124.198 157.647 125.199C159.161 126.199 161.341 125.569 162.518 123.791C163.694 122.013 163.421 119.76 161.907 118.759C160.393 117.759 158.213 118.389 157.036 120.167Z" fill="#E2A18D"/>
<path d="M149.577 138.356C138.16 138.356 139.4 120.398 139.4 120.398L159.124 120.326C159.124 120.326 161.32 138.356 149.578 138.356H149.577Z" fill="#B77250"/>
<path d="M150.459 115.837C150.79 111.968 147.92 108.564 144.05 108.234C140.18 107.903 136.774 110.772 136.444 114.641C136.113 118.51 138.983 121.915 142.853 122.245C146.723 122.575 150.129 119.707 150.459 115.837Z" fill="#B77250"/>
<path d="M158.735 122.087C158.75 128.239 154.925 124.819 149.687 124.833C144.449 124.846 139.784 128.289 139.769 122.137C139.753 115.984 143.904 112.671 149.141 112.658C154.379 112.645 158.719 115.935 158.735 122.088V122.087Z" fill="#E2A18D"/>
<path d="M158.59 125.33C158.57 125.33 158.55 125.327 158.53 125.322C158.388 125.289 158.301 125.149 158.334 125.007C158.553 124.064 158.662 123.083 158.66 122.096C158.658 121.215 158.566 120.34 158.387 119.493C158.357 119.351 158.448 119.212 158.59 119.182C158.732 119.152 158.871 119.243 158.901 119.384C159.087 120.267 159.183 121.178 159.185 122.095C159.188 123.123 159.073 124.143 158.846 125.126C158.817 125.247 158.71 125.33 158.59 125.33Z" fill="#B77250"/>
<path d="M139.918 125.309C139.798 125.309 139.69 125.227 139.663 125.107C139.437 124.141 139.322 123.139 139.318 122.128C139.316 121.193 139.41 120.263 139.599 119.364C139.629 119.222 139.767 119.132 139.91 119.16C140.052 119.19 140.144 119.33 140.113 119.471C139.932 120.335 139.841 121.228 139.844 122.126C139.846 123.096 139.957 124.059 140.174 124.987C140.207 125.128 140.119 125.269 139.977 125.302C139.957 125.307 139.937 125.309 139.918 125.309Z" fill="#B77250"/>
<path d="M149.768 125.335C149.684 125.335 149.603 125.296 149.552 125.222C149.469 125.103 149.498 124.94 149.618 124.857C149.787 124.739 149.99 124.56 150.004 124.371C150.011 124.262 149.956 124.172 149.851 124.01C149.737 123.834 149.595 123.616 149.545 123.294C149.5 123.006 149.539 122.706 149.662 122.402C149.716 122.268 149.869 122.203 150.004 122.257C150.138 122.312 150.204 122.464 150.149 122.599C150.062 122.813 150.033 123.02 150.064 123.212C150.098 123.423 150.192 123.569 150.293 123.724C150.412 123.909 150.548 124.118 150.529 124.407C150.507 124.725 150.303 125.021 149.919 125.288C149.874 125.32 149.821 125.335 149.769 125.335H149.768Z" fill="#363E44"/>
<path d="M148.292 127.985C147.908 127.985 147.247 127.907 146.622 127.459C146.269 127.206 145.975 126.867 145.77 126.476C145.702 126.348 145.752 126.189 145.881 126.122C146.01 126.054 146.168 126.104 146.236 126.232C146.403 126.55 146.642 126.827 146.928 127.031C147.476 127.424 148.059 127.467 148.359 127.459C148.502 127.455 148.624 127.569 148.629 127.714C148.634 127.859 148.52 127.979 148.374 127.984C148.348 127.984 148.321 127.985 148.292 127.985Z" fill="white"/>
<path d="M138.675 118.857C138.675 118.857 143.697 119.85 149.24 113.923C149.24 113.923 158.367 127.128 166.602 112.133C166.602 112.133 162.119 113.857 159.912 110.683C156.4 105.633 147.598 101.265 143.605 110.084L138.674 118.857H138.675Z" fill="#B77250"/>
<path d="M156.397 120.051L156.372 120.049C156.359 120.102 156.323 120.169 156.267 120.168C156.2 120.248 156.169 120.376 156.124 120.461C156.043 120.613 155.812 120.478 155.893 120.325C155.948 120.223 155.583 120.419 155.424 120.48C154.915 120.675 154.399 120.848 153.877 121.005C153.634 121.078 153.39 121.153 153.144 121.218C152.947 121.27 152.295 121.476 152.244 121.445C151.581 122.052 151.214 122.626 151.214 122.626C151.214 122.626 152.166 123.049 153.396 123.114C153.4 123.098 153.403 123.081 153.407 123.064C153.435 122.899 156.273 122.231 156.349 122.356C157.55 121.591 158.241 120.512 158.241 120.512C158.241 120.512 157.46 120.166 156.398 120.051H156.397Z" fill="white"/>
<path d="M154.319 120.216C153.467 120.472 152.764 120.968 152.245 121.443C152.309 121.975 152.563 122.486 153 122.862C153.113 122.958 153.233 123.042 153.358 123.112C153.913 123.145 154.525 123.106 155.134 122.923C155.575 122.79 155.972 122.592 156.329 122.368C156.783 121.657 156.787 120.759 156.372 120.049C155.748 119.985 155.031 120 154.319 120.214V120.216Z" fill="#363E44"/>
<path d="M142.489 120.243L142.514 120.241C142.528 120.294 142.563 120.361 142.619 120.36C142.686 120.44 142.717 120.568 142.762 120.653C142.843 120.805 143.074 120.669 142.993 120.517C142.939 120.415 143.303 120.611 143.463 120.672C143.971 120.867 144.487 121.04 145.009 121.197C145.252 121.27 145.496 121.345 145.743 121.41C145.939 121.461 146.591 121.667 146.642 121.636C147.306 122.244 147.673 122.818 147.673 122.818C147.673 122.818 146.721 123.241 145.49 123.306C145.487 123.289 145.483 123.273 145.48 123.256C145.451 123.091 142.613 122.422 142.537 122.547C141.336 121.783 140.645 120.704 140.645 120.704C140.645 120.704 141.427 120.357 142.488 120.243H142.489Z" fill="white"/>
<path d="M144.568 120.407C145.42 120.663 146.123 121.16 146.642 121.635C146.578 122.166 146.324 122.677 145.887 123.054C145.774 123.15 145.655 123.233 145.53 123.304C144.976 123.337 144.362 123.298 143.753 123.114C143.313 122.982 142.915 122.783 142.559 122.559C142.105 121.848 142.1 120.95 142.516 120.241C143.139 120.176 143.856 120.192 144.568 120.406V120.407Z" fill="#363E44"/>
<path d="M41.8644 211.88C57.2227 211.88 69.6731 199.433 69.6731 184.079C69.6731 168.724 57.2227 156.277 41.8644 156.277C26.506 156.277 14.0557 168.724 14.0557 184.079C14.0557 199.433 26.506 211.88 41.8644 211.88Z" fill="#F086AB"/>
<path d="M42.184 188.566L17.6572 193.176C18.914 196.524 20.8879 199.663 23.5825 202.357C33.6796 212.451 50.0511 212.451 60.1482 202.357C62.9155 199.59 64.9215 196.353 66.1724 192.903L42.1852 188.566H42.184Z" fill="white"/>
<path d="M52.4918 182.57C55.5761 182.57 58.0765 180.07 58.0765 176.986C58.0765 173.903 55.5761 171.403 52.4918 171.403C49.4075 171.403 46.9072 173.903 46.9072 176.986C46.9072 180.07 49.4075 182.57 52.4918 182.57Z" fill="#363E44"/>
<path d="M55.0207 188.729C58.0494 188.146 60.0318 185.218 59.4485 182.191C58.8653 179.163 55.9373 177.181 52.9087 177.764C49.88 178.347 47.8976 181.274 48.4808 184.302C49.0641 187.33 51.9921 189.312 55.0207 188.729Z" fill="#363E44"/>
<path d="M39.9373 152.963C42.8463 151.036 45.8769 151.281 47.8175 152.078C53.3306 154.344 56.5803 161.38 55.4034 170.116C46.7298 170.279 38.0563 170.443 29.3828 170.607C28.1558 165.085 27.6185 159.369 30.4871 155.759C34.1931 151.097 39.356 152.987 39.9373 152.963Z" fill="#363E44"/>
<path d="M41.038 197.566C44.6725 197.808 47.8151 195.058 48.0569 191.424L49.2303 173.761L36.0681 172.887L34.8947 190.55C34.6529 194.184 37.4035 197.325 41.038 197.567V197.566Z" fill="#F2D6D6"/>
<path d="M30.8481 169.482C30.9982 176.647 36.0634 182.353 42.1626 182.225C48.2619 182.098 53.0853 176.186 52.9364 169.021C52.7863 161.857 47.721 156.717 41.6218 156.843C35.5226 156.97 30.6992 162.316 30.8481 169.481V169.482Z" fill="#F2D6D6"/>
<path d="M51.053 166.818C49.7211 168.914 50.0881 171.532 51.8714 172.666C53.6559 173.8 56.1825 173.018 57.5144 170.922C58.8462 168.826 58.4793 166.208 56.696 165.075C54.9115 163.941 52.3848 164.722 51.053 166.818Z" fill="#F2D6D6"/>
<path d="M32.7746 167.201C34.1934 169.239 33.9361 171.87 32.2004 173.077C30.4648 174.283 27.9083 173.609 26.4896 171.57C25.0708 169.531 25.3281 166.9 27.0637 165.694C28.7994 164.488 31.3558 165.162 32.7746 167.201Z" fill="#F2D6D6"/>
<path d="M41.9616 182.49C39.6815 182.49 37.4837 181.7 35.5931 180.201C35.48 180.11 35.4609 179.946 35.5503 179.832C35.6408 179.718 35.8064 179.699 35.9195 179.789C37.7696 181.257 39.9317 182.007 42.157 181.962C44.4311 181.915 46.5896 181.044 48.3968 179.443C48.5052 179.347 48.672 179.358 48.7673 179.466C48.8637 179.574 48.853 179.74 48.7446 179.836C46.8422 181.52 44.5681 182.436 42.1677 182.486C42.0986 182.487 42.0295 182.489 41.9616 182.489V182.49Z" fill="#363E44"/>
<path d="M31.3165 173.196C31.1998 173.196 31.0926 173.117 31.0628 172.998C30.8519 172.179 30.709 171.331 30.6375 170.476C30.6256 170.331 30.7328 170.204 30.877 170.192C31.0247 170.18 31.1486 170.287 31.1605 170.432C31.2296 171.257 31.3678 172.077 31.5715 172.868C31.6072 173.009 31.5226 173.152 31.3821 173.187C31.3606 173.193 31.338 173.196 31.3165 173.196Z" fill="#363E44"/>
<path d="M52.6243 172.693C52.6064 172.693 52.5885 172.691 52.5706 172.687C52.4289 172.657 52.3372 172.518 52.3669 172.376C52.5599 171.455 52.6636 170.502 52.6755 169.544C52.6779 169.4 52.7946 169.285 52.9376 169.285H52.9411C53.0865 169.287 53.202 169.406 53.2008 169.55C53.1877 170.54 53.0805 171.527 52.8804 172.482C52.8542 172.606 52.7458 172.692 52.6231 172.692L52.6243 172.693Z" fill="#363E44"/>
<path d="M41.4196 173.63C41.3695 173.63 41.3195 173.616 41.2754 173.586C40.8335 173.295 40.5928 172.966 40.5607 172.609C40.5309 172.288 40.6727 172.057 40.8097 171.834C40.9252 171.647 41.0336 171.471 41.0682 171.215C41.0991 170.982 41.0598 170.734 40.949 170.479C40.8919 170.346 40.9526 170.191 41.086 170.134C41.2194 170.077 41.3731 170.137 41.4315 170.271C41.5792 170.614 41.6328 170.954 41.5887 171.284C41.5399 171.651 41.3838 171.905 41.2576 172.11C41.1384 172.304 41.0705 172.42 41.0836 172.56C41.1015 172.749 41.2635 172.947 41.5649 173.147C41.6864 173.227 41.7198 173.39 41.6388 173.511C41.5887 173.588 41.5053 173.629 41.4196 173.629V173.63Z" fill="#363E44"/>
<path d="M43.0957 176.024C43.0885 176.024 43.0814 176.024 43.0754 176.024C42.9301 176.024 42.8134 175.905 42.8145 175.76C42.8145 175.616 42.9325 175.499 43.0766 175.499C43.0826 175.499 43.0897 175.499 43.0957 175.499C43.4542 175.499 44.1321 175.426 44.7599 174.954C45.0922 174.703 45.3686 174.369 45.5568 173.989C45.6211 173.859 45.7784 173.805 45.9082 173.87C46.0381 173.934 46.0917 174.091 46.0274 174.221C45.8022 174.675 45.4734 175.074 45.0755 175.373C44.3274 175.936 43.5222 176.024 43.0957 176.024Z" fill="#363E44"/>
<path d="M37.0826 173.217C35.9855 173.217 34.749 172.956 33.5279 172.416C30.4724 171.062 28.6533 168.456 29.4729 166.606C30.2925 164.758 33.4457 164.355 36.5013 165.709C39.5569 167.064 41.3759 169.669 40.5564 171.519C40.0644 172.629 38.7302 173.218 37.0815 173.218L37.0826 173.217ZM32.9097 165.419C31.4885 165.419 30.3604 165.9 29.953 166.819C29.2501 168.403 30.9501 170.698 33.7412 171.936C36.5323 173.172 39.3746 172.89 40.0763 171.306C40.7791 169.722 39.0792 167.427 36.2881 166.189C35.1171 165.67 33.9365 165.419 32.9097 165.419Z" fill="white"/>
<path d="M46.2279 172.934C44.5792 172.934 43.2462 172.345 42.753 171.234C41.9334 169.386 43.7525 166.779 46.8081 165.425C49.8636 164.071 53.0169 164.473 53.8365 166.322C54.6561 168.17 52.837 170.777 49.7814 172.131C48.5604 172.672 47.3239 172.933 46.2267 172.933L46.2279 172.934ZM43.2331 171.022C43.9359 172.606 46.7783 172.888 49.5682 171.652C52.3593 170.416 54.0593 168.12 53.3564 166.536C52.6536 164.952 49.8112 164.67 47.0213 165.906C44.2302 167.142 42.5315 169.438 43.2331 171.022Z" fill="white"/>
<path d="M42.6875 170.53H40.4837C40.3384 170.53 40.2216 170.413 40.2216 170.268C40.2216 170.124 40.3395 170.006 40.4837 170.006H42.6875C42.8328 170.006 42.9496 170.124 42.9496 170.268C42.9496 170.413 42.8317 170.53 42.6875 170.53Z" fill="white"/>
<path d="M56.4619 193.581C59.0532 193.082 60.7493 190.578 60.2503 187.987C59.7513 185.397 57.2461 183.701 54.6549 184.2C52.0636 184.699 50.3674 187.203 50.8664 189.794C51.3654 192.384 53.8706 194.08 56.4619 193.581Z" fill="#363E44"/>
<path d="M60.9895 197.827C62.469 195.643 61.8969 192.673 59.7118 191.194C57.5266 189.715 54.5558 190.287 53.0764 192.471C51.5969 194.656 52.169 197.626 54.3542 199.105C56.5393 200.584 59.5101 200.012 60.9895 197.827Z" fill="#363E44"/>
<path d="M60.9436 202.944C62.2053 201.194 61.8089 198.752 60.0582 197.491C58.3075 196.23 55.8655 196.626 54.6038 198.376C53.3421 200.126 53.7385 202.568 55.4892 203.829C57.2398 205.091 59.6819 204.694 60.9436 202.944Z" fill="#363E44"/>
<path d="M57.9423 199.955L50.5196 212.809H65.3662L57.9423 199.955Z" fill="#363E44"/>
<path d="M49.8048 167.233L49.7762 167.229C49.7608 167.289 49.7203 167.366 49.6571 167.364C49.5809 167.454 49.5463 167.599 49.4951 167.695C49.4034 167.867 49.1413 167.714 49.233 167.542C49.295 167.427 48.8828 167.648 48.7029 167.719C48.1275 167.94 47.5438 168.135 46.953 168.313C46.6778 168.396 46.4014 168.481 46.1239 168.553C45.9011 168.612 45.1637 168.844 45.1053 168.809C44.3548 169.497 43.9403 170.147 43.9403 170.147C43.9403 170.147 45.0184 170.624 46.4098 170.697C46.4133 170.678 46.4181 170.66 46.4217 170.641C46.4538 170.454 49.6643 169.696 49.75 169.838C51.1081 168.973 51.8895 167.751 51.8895 167.751C51.8895 167.751 51.0056 167.359 49.8036 167.23L49.8048 167.233Z" fill="white"/>
<path d="M47.454 167.418C46.4903 167.709 45.6958 168.271 45.1073 168.809C45.1811 169.411 45.467 169.989 45.9626 170.414C46.0901 170.523 46.2259 170.617 46.3676 170.697C46.9954 170.734 47.6887 170.69 48.3773 170.482C48.8752 170.331 49.3255 170.108 49.7282 169.853C50.2416 169.048 50.2464 168.032 49.7746 167.229C49.0694 167.156 48.2581 167.176 47.4529 167.418H47.454Z" fill="#363E44"/>
<path d="M34.0683 167.458L34.0969 167.454C34.1124 167.514 34.1529 167.591 34.216 167.589C34.2923 167.679 34.3268 167.825 34.3781 167.92C34.4698 168.093 34.7319 167.939 34.6401 167.766C34.5782 167.651 34.9904 167.872 35.1702 167.941C35.7456 168.163 36.3293 168.357 36.9202 168.534C37.1954 168.617 37.4718 168.701 37.7505 168.775C37.9733 168.833 38.7107 169.066 38.769 169.031C39.5207 169.718 39.9353 170.367 39.9353 170.367C39.9353 170.367 38.8584 170.846 37.4658 170.921C37.4622 170.902 37.4575 170.884 37.4539 170.865C37.4217 170.678 34.2113 169.923 34.1243 170.065C32.7651 169.2 31.9824 167.979 31.9824 167.979C31.9824 167.979 32.8664 167.586 34.0671 167.457L34.0683 167.458Z" fill="white"/>
<path d="M36.4202 167.642C37.3839 167.932 38.1797 168.493 38.7682 169.031C38.6955 169.632 38.4096 170.21 37.914 170.636C37.7866 170.746 37.6508 170.84 37.5102 170.92C36.8824 170.957 36.1891 170.914 35.4993 170.707C35.0014 170.557 34.5499 170.333 34.1473 170.079C33.6338 169.274 33.6267 168.258 34.0972 167.455C34.8025 167.382 35.6137 167.399 36.4202 167.642Z" fill="#363E44"/>
<mask id="path-70-inside-1_1_38" fill="white">
<path d="M195.45 210.677C184.513 210.677 175.615 201.782 175.615 190.848C175.615 179.914 184.513 171.019 195.45 171.019C206.387 171.019 215.284 179.914 215.284 190.848C215.284 201.782 206.387 210.677 195.45 210.677ZM195.45 171.609C184.838 171.609 176.206 180.239 176.206 190.848C176.206 201.457 184.838 210.086 195.45 210.086C206.061 210.086 214.694 201.457 214.694 190.848C214.694 180.239 206.061 171.609 195.45 171.609Z"/>
</mask>
<path d="M195.45 179.677C201.626 179.677 206.615 184.653 206.615 190.848H144.615C144.615 218.911 167.4 241.677 195.45 241.677V179.677ZM206.615 190.848C206.615 197.042 201.626 202.019 195.45 202.019V140.019C167.4 140.019 144.615 162.785 144.615 190.848H206.615ZM195.45 202.019C189.274 202.019 184.284 197.042 184.284 190.848H246.284C246.284 162.785 223.5 140.019 195.45 140.019V202.019ZM184.284 190.848C184.284 184.653 189.274 179.677 195.45 179.677V241.677C223.5 241.677 246.284 218.911 246.284 190.848H184.284ZM195.45 140.609C167.725 140.609 145.206 163.11 145.206 190.848H207.206C207.206 197.368 201.951 202.609 195.45 202.609V140.609ZM145.206 190.848C145.206 218.585 167.725 241.086 195.45 241.086V179.086C201.951 179.086 207.206 184.328 207.206 190.848H145.206ZM195.45 241.086C223.174 241.086 245.694 218.585 245.694 190.848H183.694C183.694 184.328 188.948 179.086 195.45 179.086V241.086ZM245.694 190.848C245.694 163.11 223.174 140.609 195.45 140.609V202.609C188.948 202.609 183.694 197.368 183.694 190.848H245.694Z" fill="#4693B2" mask="url(#path-70-inside-1_1_38)"/>
<mask id="mask2_1_38" style="mask-type:alpha" maskUnits="userSpaceOnUse" x="175" y="170" width="41" height="41">
<path d="M195.331 210.201C206.285 210.201 215.165 201.323 215.165 190.371C215.165 179.42 206.285 170.542 195.331 170.542C184.376 170.542 175.496 179.42 175.496 190.371C175.496 201.323 184.376 210.201 195.331 210.201Z" fill="#EFBC73"/>
</mask>
<g mask="url(#mask2_1_38)">
<path d="M214.942 210.22H175.471V195.359L195.562 191.359L214.942 195.359V210.22Z" fill="#4693B2"/>
</g>
<path d="M191.233 179.508C193.479 179.508 195.3 177.687 195.3 175.442C195.3 173.196 193.479 171.376 191.233 171.376C188.987 171.376 187.166 173.196 187.166 175.442C187.166 177.687 188.987 179.508 191.233 179.508Z" fill="#333333"/>
<path d="M193.205 175.606C195.451 175.606 197.271 173.786 197.271 171.54C197.271 169.295 195.451 167.474 193.205 167.474C190.958 167.474 189.138 169.295 189.138 171.54C189.138 173.786 190.958 175.606 193.205 175.606Z" fill="#333333"/>
<path d="M198.622 174.603C201.075 174.603 203.064 172.615 203.064 170.162C203.064 167.71 201.075 165.721 198.622 165.721C196.169 165.721 194.18 167.71 194.18 170.162C194.18 172.615 196.169 174.603 198.622 174.603Z" fill="#333333"/>
<path d="M201.038 178.67C203.119 178.67 204.805 176.984 204.805 174.905C204.805 172.825 203.119 171.139 201.038 171.139C198.958 171.139 197.271 172.825 197.271 174.905C197.271 176.984 198.958 178.67 201.038 178.67Z" fill="#333333"/>
<path d="M199.702 182.352H192.21V195.247H199.702V182.352Z" fill="#72BAD7"/>
<path d="M195.825 197.064C199.383 197.064 202.268 195.907 202.268 194.48C202.268 193.053 199.383 191.896 195.825 191.896C192.267 191.896 189.383 193.053 189.383 194.48C189.383 195.907 192.267 197.064 195.825 197.064Z" fill="#72BAD7"/>
<path d="M201.99 179.57C202.07 175.727 199.484 172.556 196.213 172.488C192.942 172.419 190.225 175.479 190.144 179.322C190.063 183.165 192.65 186.336 195.921 186.404C199.192 186.473 201.909 183.413 201.99 179.57Z" fill="#AEE5FC"/>
<path d="M191.14 178.127C191.855 179.252 191.659 180.656 190.701 181.263C189.744 181.871 188.389 181.453 187.675 180.328C186.96 179.204 187.157 177.8 188.115 177.193C189.071 176.585 190.427 177.003 191.14 178.127Z" fill="#AEE5FC"/>
<path d="M204.312 180.67C205.073 179.577 204.935 178.166 204.004 177.519C203.074 176.872 201.703 177.234 200.942 178.327C200.181 179.42 200.319 180.831 201.25 181.479C202.18 182.126 203.551 181.764 204.312 180.67Z" fill="#AEE5FC"/>
<path d="M196.08 175.63C199.169 175.63 201.673 174.295 201.673 172.648C201.673 171.001 199.169 169.666 196.08 169.666C192.991 169.666 190.487 171.001 190.487 172.648C190.487 174.295 192.991 175.63 196.08 175.63Z" fill="#333333"/>
<path d="M113.729 215.61C102.782 215.61 93.8778 206.706 93.8778 195.764C93.8778 184.822 102.784 175.918 113.729 175.918C124.674 175.918 133.58 184.822 133.58 195.764C133.58 206.706 124.674 215.61 113.729 215.61ZM113.729 176.442C103.072 176.442 94.402 185.11 94.402 195.763C94.402 206.416 103.072 215.083 113.729 215.083C124.386 215.083 133.055 206.416 133.055 195.763C133.055 185.11 124.385 176.442 113.729 176.442Z" fill="#363E44"/>
<mask id="mask3_1_38" style="mask-type:alpha" maskUnits="userSpaceOnUse" x="94" y="178" width="39" height="39">
<path d="M113.619 216.099C124.294 216.099 132.948 207.729 132.948 197.404C132.948 187.079 124.294 178.709 113.619 178.709C102.945 178.709 94.2909 187.079 94.2909 197.404C94.2909 207.729 102.945 216.099 113.619 216.099Z" fill="#EFBC73"/>
</mask>
<g mask="url(#mask3_1_38)">
<path d="M132.132 216.117H94.796V202.06L113.801 198.276L132.132 202.06V216.117Z" fill="#363E44"/>
</g>
<path d="M117.51 188.691H109.066V201.126H117.51V188.691Z" fill="white"/>
<path d="M113.14 203.173C117.15 203.173 120.402 201.869 120.402 200.261C120.402 198.653 117.15 197.349 113.14 197.349C109.129 197.349 105.878 198.653 105.878 200.261C105.878 201.869 109.129 203.173 113.14 203.173Z" fill="white"/>
<path d="M120.082 185.557C120.173 181.226 117.257 177.653 113.571 177.575C109.884 177.498 106.822 180.946 106.731 185.277C106.64 189.608 109.555 193.182 113.242 193.259C116.929 193.336 119.991 189.888 120.082 185.557Z" fill="white"/>
<path d="M107.859 183.93C108.664 185.197 108.443 186.78 107.364 187.464C106.285 188.149 104.758 187.678 103.953 186.41C103.148 185.143 103.369 183.56 104.449 182.876C105.527 182.191 107.054 182.663 107.859 183.93Z" fill="white"/>
<path d="M118.908 184.161C118.05 185.393 118.206 186.983 119.255 187.713C120.304 188.442 121.849 188.035 122.707 186.803C123.565 185.571 123.409 183.981 122.36 183.251C121.311 182.521 119.766 182.929 118.908 184.161Z" fill="white"/>
<path d="M107.01 183.172C108.125 181.389 109.852 179.317 112.245 179.002C115.375 178.589 117.132 181.474 120.355 181.252C126.527 180.828 123.641 177.618 122.887 177.68C123.66 176.654 124.217 171.31 120.297 173.901C116.316 176.53 114.236 174.513 111.495 175.18C109.687 175.619 106.714 177.584 107.01 183.172Z" fill="#111111"/>
<path d="M117.758 180.457C118.218 180.859 118.786 181.45 119.279 182.269C119.526 182.679 119.709 183.071 119.846 183.422C119.957 182.958 120.087 182.144 119.9 181.163C119.749 180.377 119.453 179.779 119.227 179.403C118.737 179.754 118.247 180.106 117.758 180.457Z" fill="#111111"/>
<path d="M198.929 129.299C189.573 129.299 181.962 121.69 181.962 112.336C181.962 102.983 189.573 95.3739 198.929 95.3739C208.285 95.3739 215.896 102.983 215.896 112.336C215.896 121.69 208.285 129.299 198.929 129.299ZM198.929 95.8991C189.862 95.8991 182.487 103.273 182.487 112.336C182.487 121.399 189.864 128.774 198.929 128.774C207.994 128.774 215.371 121.399 215.371 112.336C215.371 103.273 207.994 95.8991 198.929 95.8991Z" fill="#605DF3"/>
<mask id="mask4_1_38" style="mask-type:alpha" maskUnits="userSpaceOnUse" x="182" y="96" width="34" height="34">
<path d="M198.855 129.913C207.955 129.913 215.331 122.536 215.331 113.436C215.331 104.336 207.955 96.9593 198.855 96.9593C189.755 96.9593 182.378 104.336 182.378 113.436C182.378 122.536 189.755 129.913 198.855 129.913Z" fill="#EFBC73"/>
</mask>
<g mask="url(#mask4_1_38)">
<path d="M215.331 129.913H182.378V117.43L199.152 114.07L215.331 117.43V129.913Z" fill="#605DF3"/>
</g>
<path d="M202.151 103.082H194.95V115.476H202.151V103.082Z" fill="#D8D8FB"/>
<path d="M198.425 117.222C201.845 117.222 204.618 116.11 204.618 114.739C204.618 113.367 201.845 112.255 198.425 112.255C195.006 112.255 192.233 113.367 192.233 114.739C192.233 116.11 195.006 117.222 198.425 117.222Z" fill="#D8D8FB"/>
<path d="M204.352 100.403C204.43 96.7101 201.943 93.6629 198.799 93.5971C195.655 93.5313 193.044 96.4717 192.966 100.165C192.889 103.858 195.375 106.905 198.519 106.971C201.663 107.037 204.275 104.096 204.352 100.403Z" fill="#ECEBFD"/>
<path d="M193.922 99.0229C194.609 100.103 194.42 101.452 193.501 102.037C192.581 102.622 191.279 102.219 190.592 101.139C189.905 100.059 190.094 98.7097 191.013 98.1249C191.933 97.5402 193.235 97.9427 193.922 99.0229Z" fill="#ECEBFD"/>
<path d="M203.344 99.2194C202.613 100.27 202.746 101.626 203.639 102.248C204.534 102.87 205.852 102.522 206.583 101.471C207.315 100.421 207.181 99.0646 206.288 98.4429C205.393 97.8213 204.075 98.169 203.344 99.2194Z" fill="#ECEBFD"/>
<path d="M193.198 98.3762C194.149 96.8554 195.622 95.0881 197.663 94.8201C200.331 94.4688 201.832 96.9614 204.578 96.7399C205.918 96.6315 207.31 91.2866 205.429 91.4307C201.373 91.7415 199.359 90.9924 197.022 91.5605C195.479 91.9357 192.946 93.6101 193.197 98.3762H193.198Z" fill="#333333"/>
<path d="M202.362 96.0599C202.754 96.4029 203.239 96.9066 203.66 97.6057C203.871 97.9546 204.027 98.2893 204.143 98.5882C204.239 98.1916 204.349 97.4985 204.19 96.6613C204.062 95.9908 203.809 95.4811 203.616 95.1607C203.199 95.4608 202.781 95.7598 202.362 96.0599Z" fill="#333333"/>
<path d="M199.543 93.5711C201.63 93.2324 203.048 91.2663 202.709 89.1796C202.37 87.093 200.404 85.676 198.316 86.0147C196.229 86.3534 194.812 88.3196 195.151 90.4062C195.489 92.4929 197.456 93.9099 199.543 93.5711Z" fill="#333333"/>
<path d="M124.279 79.089C124.279 94.3008 118.112 108.07 108.142 118.035C100.281 125.894 90.0507 131.39 78.6182 133.362C75.5531 133.892 72.401 134.169 69.1834 134.169H65.8086C50.0602 134.169 35.8533 127.562 25.8122 116.969C16.4537 107.099 10.713 93.7649 10.713 79.089C10.713 64.413 16.8801 50.1075 26.8497 40.1405C36.8194 30.1736 50.5939 24.0081 65.8086 24.0081H69.1834C99.6117 24.0081 124.28 48.6665 124.28 79.089H124.279Z" fill="white"/>
<path d="M17.7033 74.9195C13.9425 84.2731 1.19961 110.436 13.9461 116.717C24.4887 121.913 35.6007 95.7776 40.0239 86.7931C32.5833 82.8357 25.1439 78.877 17.7033 74.9195Z" fill="#E2A18D"/>
<path d="M68.4103 86.4251C78.15 89.0357 109.432 102.809 114.141 89.4049C118.037 78.3172 88.2316 69.3268 78.779 66.0136C75.7413 73.8726 71.4492 78.5661 68.4103 86.4251Z" fill="#E2A18D"/>
<path d="M113.022 91.3306C117.672 86.7503 109.609 71.8183 108.698 70.469C102.431 61.1916 89.327 45.7904 84.4655 49.0416C79.8827 52.1059 81.1717 64.6215 91.8465 78.2101C101.343 90.2993 109.18 95.1154 113.022 91.3306Z" fill="#E2A18D"/>
<path d="M100.196 61.8525C98.429 63.4901 95.5224 63.2281 93.7021 61.2666L79.1652 45.2223L85.3764 39.4641L100.1 55.3357C101.919 57.2972 101.962 60.215 100.196 61.8525Z" fill="#84524D"/>
<path d="M120.398 24.9448C124.16 22.9794 125.673 18.4457 123.777 14.8187C121.882 11.1916 117.295 9.84459 113.533 11.81C109.771 13.7755 108.258 18.3091 110.154 21.9362C112.049 25.5632 116.636 26.9102 120.398 24.9448Z" fill="#EFBC73"/>
<path d="M80.9628 29.4542L87.3122 41.6018L124.85 33.4629L109.082 3.29529L80.9628 29.4542Z" fill="#D87355"/>
<path d="M80.9712 29.468L72.8701 33.7002L79.2028 45.8154L87.3039 41.5831L80.9712 29.468Z" fill="#EFBC73"/>
<path d="M83.987 38.4419L78.2245 41.4524L79.3401 43.5867L85.1026 40.5762L83.987 38.4419Z" fill="#E0AA63"/>
<path d="M82.2634 35.1454L76.5009 38.1559L77.6165 40.2902L83.379 37.2797L82.2634 35.1454Z" fill="#E0AA63"/>
<path d="M80.5398 31.8483L74.7772 34.8588L75.8928 36.993L81.6553 33.9826L80.5398 31.8483Z" fill="#E0AA63"/>
<path d="M93.1017 43.0583C92.381 42.3497 90.886 42.7487 89.6126 43.462C87.5398 44.6244 86.2699 47.042 87.3313 48.2056C88.0746 49.0202 90.4714 48.5378 92.2917 46.5942C93.4818 45.3235 93.8332 43.7765 93.1017 43.0571V43.0583Z" fill="#E2A18D"/>
<path d="M100.016 50.94C99.159 50.4029 97.6461 50.9781 96.6955 52.0845C95.2457 53.7708 94.201 56.2992 95.4876 57.2079C96.3893 57.8438 98.6265 56.8566 99.9857 54.5688C100.876 53.0718 100.885 51.4854 100.017 50.94H100.016Z" fill="#E2A18D"/>
<path d="M95.6466 45.801C94.8508 45.0508 93.083 45.3009 91.7952 46.2286C89.8321 47.6422 88.1047 50.017 89.2769 51.2472C90.0977 52.1094 92.7447 51.5985 94.7531 49.543C96.0671 48.1984 96.4554 46.5621 95.6478 45.801H95.6466Z" fill="#E2A18D"/>
<path d="M98.0303 48.2413C97.15 47.5922 95.4262 48.0507 94.2576 49.125C92.4767 50.7625 91.046 53.3266 92.3552 54.408C93.2724 55.1654 95.8396 54.3425 97.5883 52.063C98.7331 50.5708 98.9226 48.8999 98.0303 48.2413Z" fill="#E2A18D"/>
<path d="M84.2369 62.3229C82.8931 60.9986 82.1641 58.5286 82.0021 57.1126C81.4934 52.6704 83.6341 47.8602 85.2828 47.909C86.1679 47.9352 87.3782 48.7558 87.4306 50.3421C87.4973 52.3595 86.7707 53.2539 86.8696 54.7855C86.9994 56.791 89.3474 57.4282 89.8322 59.6254C90.7054 63.5806 86.0762 64.1343 84.2369 62.3229Z" fill="#E2A18D"/>
<path d="M89.9411 66.7711L87.194 95.0094C87.194 95.0094 85.0403 94.4795 79.9107 91.2068L78.6182 133.361C75.5531 133.891 72.401 134.167 69.1834 134.167H65.8086C50.0602 134.167 35.8533 127.561 25.8122 116.968L28.4699 94.4783L11.0275 77.2894C11.0275 77.2894 26.8783 63.0184 48.0744 61.0284C70.1293 58.9597 89.9411 66.7711 89.9411 66.7711Z" fill="#363E44"/>
<path d="M17.9761 95.7514C38.6444 92.1785 53.2385 89.2465 57.7807 88.5188C58.256 88.4426 59.0947 88.3044 60.193 88.4271C64.2624 88.8796 65.3714 92.1845 69.4336 94.6128C74.0414 97.3675 78.1965 96.3111 78.4169 97.664C78.5694 98.6048 77.1148 99.4445 73.765 99.9375C76.3536 99.8553 79.869 99.897 79.9095 101.327C79.869 102.982 75.733 103.417 73.2182 103.558C76.2619 103.386 77.932 104.206 77.7569 105.01C77.4806 106.274 75.1504 106.956 71.1192 107.026C73.9163 107.755 74.4869 108.349 74.1581 109.021C73.5577 110.247 70.2425 110.243 67.312 109.79C64.0122 109.279 61.6309 107.739 60.1525 106.733C60.1525 106.733 60.1525 106.733 60.1513 106.733C45.9361 110.736 28.9666 115.324 17.6104 117.341C15.2076 117.767 18.075 103.563 17.9773 95.7526L17.9761 95.7514Z" fill="#E2A18D"/>
<path d="M18.2116 95.9717C18.0865 95.9717 17.9745 95.8812 17.9531 95.7537C17.9281 95.6108 18.0246 95.475 18.1675 95.45C22.7277 94.6604 27.264 93.8566 32.0338 92.9919C32.1767 92.9657 32.3137 93.061 32.3387 93.2039C32.3649 93.3468 32.2696 93.4838 32.1267 93.5088C27.3557 94.3746 22.8182 95.1785 18.2569 95.9681C18.2414 95.9705 18.2271 95.9717 18.2116 95.9717Z" fill="#363E44"/>
<path d="M65.1892 93.2516C70.3556 92.0142 71.9567 90.4731 71.7339 89.6609C71.3599 88.2949 66.5162 87.547 58.7373 88.4045C60.4134 89.9158 63.5119 91.7403 65.188 93.2516H65.1892Z" fill="#E2A18D"/>
<path d="M66.8152 93.1706C66.7533 93.1706 66.6925 93.1492 66.6425 93.1051C66.1588 92.6811 65.7181 92.2583 65.2916 91.851C64.4029 91.0007 63.5643 90.198 62.5875 89.6323C62.4624 89.5597 62.4195 89.3989 62.4922 89.2738C62.5648 89.1488 62.7256 89.1059 62.8507 89.1786C63.8824 89.7752 64.7436 90.5994 65.6549 91.4723C66.0766 91.876 66.5138 92.2941 66.9892 92.7109C67.0987 92.8062 67.1095 92.9729 67.013 93.0813C66.9606 93.1408 66.8879 93.1706 66.8152 93.1706Z" fill="#363E44"/>
<path d="M73.6733 100.074C73.6733 100.074 73.665 100.074 73.6602 100.074C72.6965 100.029 71.7458 99.8565 70.8333 99.56C70.2055 99.3563 69.5909 99.0919 69.0083 98.7751C68.8809 98.7061 68.8332 98.5465 68.9035 98.4191C68.9726 98.2916 69.1322 98.2452 69.2597 98.3143C69.8136 98.6156 70.3973 98.8668 70.9954 99.061C71.8626 99.342 72.7679 99.5076 73.684 99.5504C73.8294 99.5576 73.9413 99.6803 73.9342 99.8256C73.927 99.9661 73.8115 100.076 73.6721 100.076L73.6733 100.074Z" fill="#363E44"/>
<path d="M73.5193 103.659C73.5193 103.659 73.5109 103.659 73.5062 103.659C72.5424 103.614 71.5918 103.441 70.6805 103.145C70.0515 102.941 69.438 102.677 68.8555 102.36C68.728 102.291 68.6816 102.131 68.7507 102.004C68.8198 101.876 68.9794 101.829 69.1068 101.899C69.6608 102.2 70.2445 102.452 70.8425 102.646C71.7097 102.927 72.6151 103.092 73.5312 103.135C73.6765 103.142 73.7885 103.265 73.7813 103.41C73.7742 103.551 73.6586 103.66 73.5193 103.66V103.659Z" fill="#363E44"/>
<path d="M71.0454 107.256C71.0454 107.256 71.037 107.256 71.0323 107.256C70.0686 107.211 69.1179 107.038 68.2054 106.741C67.5776 106.538 66.9629 106.273 66.3804 105.957C66.253 105.887 66.2053 105.728 66.2756 105.6C66.3459 105.473 66.5043 105.425 66.6318 105.496C67.1857 105.797 67.7694 106.048 68.3674 106.242C69.2347 106.523 70.14 106.689 71.0561 106.732C71.2014 106.739 71.3134 106.862 71.3063 107.007C71.2991 107.147 71.1836 107.257 71.0442 107.257L71.0454 107.256Z" fill="#363E44"/>
<path d="M49.3085 69.7032C46.1624 68.8445 44.3076 65.5992 45.1653 62.4527L48.4317 50.4862C49.2906 47.3409 52.5368 45.4866 55.6841 46.3441C58.8302 47.2028 60.685 50.4481 59.8273 53.5945L56.5609 65.5611C55.702 68.7064 52.4558 70.5606 49.3085 69.7032Z" fill="#E2A18D"/>
<path d="M47.2886 38.3898C47.6865 38.1374 51.5295 35.7829 55.3308 37.3025C58.16 38.4339 59.6991 40.942 61.6456 45.5402C63.9376 50.9554 64.5511 54.5127 63.5659 56.3075C62.0101 59.1443 53.0257 59.1002 48.0307 55.8859C44.4248 53.566 42.4962 49.2047 42.8929 44.9055C43.2884 40.6181 47.0349 38.5494 47.2886 38.3886V38.3898Z" fill="#E2A18D"/>
<path d="M60.3178 40.5824C60.3309 40.6193 60.3667 40.6371 60.3798 40.6741C60.3798 40.6753 60.3798 40.6764 60.3798 40.6788C60.7145 41.1159 61.0683 41.5756 61.4757 41.9436C61.6568 42.1068 61.8498 42.1544 62.0368 42.2878C62.175 42.3866 62.306 42.4807 62.4454 42.5724C63.0244 40.8444 62.723 39.1473 62.723 39.1473C62.723 39.1473 61.4555 39.5867 60.3155 40.5835L60.3178 40.5824Z" fill="white"/>
<path d="M61.9716 43.624C62.1717 43.2858 62.3254 42.9345 62.4433 42.5855C62.3957 42.4426 62.3409 42.2997 62.2706 42.1615C61.8596 41.3481 61.1329 40.8003 60.3157 40.5859C59.8916 40.9611 59.4819 41.416 59.1602 41.9603C58.0762 43.7907 58.3394 45.994 58.3966 46.3787C58.424 46.3894 58.4526 46.4001 58.4812 46.4108C58.8898 46.2572 60.903 45.4283 61.9716 43.6252V43.624Z" fill="#363E44"/>
<path d="M52.7929 48.5069C53.0765 49.0916 53.3981 49.4811 53.9449 49.7788C55.2827 48.9987 56.0927 47.909 56.0927 47.909C56.0927 47.909 54.2868 46.9718 52.2795 47.1409C52.3295 47.6172 52.5916 48.0924 52.7929 48.5069Z" fill="white"/>
<path d="M52.2747 47.1421C52.052 47.1623 51.8256 47.1968 51.5993 47.2481C49.3157 47.7625 47.8242 49.7728 47.8242 49.7728C47.8242 49.7728 50.034 50.9495 52.3176 50.435C52.9073 50.3016 53.4434 50.0682 53.9163 49.7955C53.896 48.6962 53.2802 47.6661 52.2747 47.1421Z" fill="#363E44"/>
<path d="M40.951 41.0778C39.6109 41.6256 37.8347 43.942 37.9788 46.462C38.2874 51.8057 40.9046 54.7319 47.0062 56.3051C46.2879 54.533 46.6452 51.5902 46.8656 50.0241C47.1408 48.0733 46.7084 46.5132 45.4623 45.1377C51.141 42.8582 52.9649 41.7507 52.8314 41.2838C52.6909 40.7955 50.4013 40.8301 50.4013 40.8301C50.4013 40.8301 55.451 40.3906 55.5094 39.6713C55.5272 39.4474 55.3092 38.8757 52.9553 38.2886C57.8025 38.8757 58.0896 38.5173 58.1635 38.2648C58.3827 37.5204 56.1503 34.9528 52.8481 33.6416C50.985 32.9008 48.4452 33.0008 46.0842 34.0846C41.8826 36.0139 40.7628 39.6856 40.9498 41.079L40.951 41.0778Z" fill="#84524D"/>
<path d="M48.4032 51.215C49.8934 52.3738 50.3068 54.3329 49.3276 55.5917C48.3484 56.8506 46.347 56.9315 44.8568 55.774C43.3665 54.6152 42.9532 52.6561 43.9324 51.3973C44.9116 50.1384 46.9129 50.0575 48.4032 51.215Z" fill="#E2A18D"/>
<path d="M46.0226 55.1058C45.9809 55.1058 45.9392 55.0963 45.8999 55.0748C45.7844 55.0129 45.6724 54.9403 45.5676 54.8593C45.153 54.5365 44.8683 54.0947 44.7659 53.6136C44.661 53.1169 44.7623 52.6382 45.0518 52.2666C45.1983 52.0773 45.3841 51.9284 45.6045 51.8236C45.7355 51.7617 45.8916 51.8164 45.9547 51.9474C46.0179 52.0784 45.9619 52.2345 45.8308 52.2976C45.6855 52.3667 45.5628 52.4655 45.4663 52.5894C45.2733 52.8371 45.2078 53.1622 45.2805 53.5052C45.3567 53.8649 45.5723 54.1983 45.8904 54.4448C45.9714 54.508 46.0584 54.5639 46.1477 54.6116C46.2752 54.6795 46.324 54.839 46.2561 54.9665C46.2085 55.0546 46.1179 55.1058 46.0238 55.1058H46.0226Z" fill="#363E44"/>
<path d="M60.1597 49.2786C60.149 49.2786 60.1382 49.2786 60.1275 49.2762C59.9834 49.2584 59.8809 49.1285 59.8976 48.9844C59.9286 48.7236 59.8916 48.5224 59.7868 48.3866C59.6867 48.2556 59.5462 48.2115 59.2841 48.1389C59.084 48.0841 58.8362 48.015 58.561 47.8673C58.2108 47.6792 57.8999 47.4064 57.6378 47.0587C57.5508 46.9432 57.5735 46.7776 57.6902 46.6907C57.8069 46.6037 57.9713 46.6264 58.0583 46.7431C58.2739 47.0301 58.5277 47.2528 58.81 47.4052C59.0327 47.5255 59.2317 47.5803 59.4247 47.6339C59.7165 47.7149 59.9929 47.7911 60.2037 48.0686C60.3944 48.3175 60.4658 48.6474 60.4182 49.0487C60.4027 49.1821 60.2883 49.2798 60.1573 49.2798L60.1597 49.2786Z" fill="#363E44"/>
<path d="M56.9671 58.6227C53.0622 58.6227 50.8178 57.4222 50.7118 57.3651C50.5843 57.296 50.5379 57.1364 50.607 57.009C50.6761 56.8815 50.8357 56.8351 50.9632 56.9042C50.9906 56.9196 53.8055 58.4155 58.5217 58.0344C58.667 58.0224 58.7933 58.1308 58.804 58.2749C58.8159 58.419 58.7075 58.5465 58.5634 58.5584C58.0047 58.6036 57.471 58.6239 56.9659 58.6239L56.9671 58.6227Z" fill="#363E44"/>
<path d="M59.8225 52.9395C59.6379 53.7422 58.8374 54.2424 58.0357 54.0578C57.2339 53.8732 56.7324 53.0729 56.9171 52.2714C57.1017 51.4687 57.5675 52.4215 58.3704 52.6061C59.1733 52.7907 60.0084 52.138 59.8237 52.9407L59.8225 52.9395Z" fill="#363E44"/>
<path d="M45.7502 44.9722C47.5145 39.1735 51.9829 36.7344 53.1992 35.8758C53.0395 33.7523 52.1175 32.7674 51.7554 32.4328C49.6861 30.5189 45.1367 30.6535 41.3557 33.7702C41.7095 33.6416 43.6274 33.4868 44.0872 33.8357C42.1526 33.8512 40.9471 34.6705 40.3324 35.0778C37.5163 36.9452 36.3286 40.9897 37.5115 45.4164C37.5055 45.1222 37.6771 43.7681 38.2679 43.0512C38.1059 43.7538 37.9987 44.5625 38.0225 45.4557C38.1274 49.3405 40.6302 52.0463 41.5665 52.9645C41.6428 51.9094 42.0013 47.6661 45.749 44.9734L45.7502 44.9722Z" fill="#84524D"/>
<path d="M43.6048 40.7705C43.5166 40.7705 43.4297 40.7265 43.3808 40.6455C43.3046 40.5216 43.3439 40.3596 43.4678 40.2846C44.2373 39.8142 45.0486 39.4033 45.8801 39.0651C46.7282 38.7197 47.611 38.4434 48.5092 38.2422C48.0303 37.9575 47.3894 37.6931 46.596 37.6217C45.5823 37.53 44.7579 37.7991 44.2457 38.0409C44.1146 38.1028 43.9586 38.0468 43.8954 37.9158C43.8335 37.7848 43.8895 37.6276 44.0205 37.5657C44.5911 37.2966 45.5096 36.9964 46.6425 37.0977C47.879 37.2096 48.7856 37.742 49.3276 38.1683C49.4086 38.2326 49.4443 38.3374 49.4205 38.4375C49.3955 38.5375 49.3145 38.6137 49.2132 38.6328C48.1399 38.8317 47.0844 39.1413 46.0778 39.551C45.2725 39.8785 44.4863 40.2763 43.7418 40.7324C43.6989 40.7586 43.6512 40.7705 43.6048 40.7705Z" fill="#363E44"/>
<path d="M124.279 60.9427C124.164 60.9427 124.059 60.8664 124.027 60.7497C123.987 60.6104 124.069 60.4651 124.209 60.427L127.245 59.5838C127.385 59.5457 127.53 59.6267 127.568 59.766C127.607 59.9054 127.525 60.0507 127.386 60.0888L124.349 60.9319C124.326 60.9379 124.302 60.9415 124.279 60.9415V60.9427ZM130.353 59.2563C130.238 59.2563 130.133 59.1801 130.101 59.0634C130.061 58.924 130.144 58.7787 130.283 58.7406L133.32 57.8974C133.46 57.8593 133.604 57.9403 133.642 58.0797C133.682 58.219 133.6 58.3643 133.46 58.4024L130.424 59.2456C130.4 59.2515 130.376 59.2551 130.353 59.2551V59.2563ZM136.428 57.5699C136.312 57.5699 136.207 57.4937 136.175 57.377C136.136 57.2377 136.218 57.0924 136.357 57.0543L139.394 56.2111C139.534 56.173 139.679 56.2539 139.717 56.3933C139.756 56.5326 139.674 56.6779 139.534 56.716L136.498 57.5592C136.474 57.5652 136.45 57.5687 136.428 57.5687V57.5699ZM142.502 55.8836C142.386 55.8836 142.281 55.8073 142.249 55.6906C142.21 55.5513 142.292 55.406 142.431 55.3679L145.468 54.5247C145.607 54.4866 145.753 54.5676 145.791 54.7069C145.83 54.8463 145.748 54.9916 145.609 55.0297L142.572 55.8728C142.548 55.8788 142.524 55.8824 142.502 55.8824V55.8836Z" fill="#0A2315"/>
<path d="M127.816 120.66C127.747 120.66 127.677 120.632 127.625 120.578L125.455 118.292C125.355 118.187 125.36 118.021 125.464 117.921C125.569 117.821 125.736 117.825 125.836 117.93L128.007 120.216C128.107 120.32 128.102 120.487 127.997 120.587C127.946 120.635 127.882 120.66 127.816 120.66ZM123.476 116.089C123.407 116.089 123.337 116.062 123.286 116.007L121.115 113.721C121.015 113.617 121.02 113.45 121.125 113.35C121.23 113.25 121.396 113.255 121.496 113.359L123.667 115.645C123.767 115.75 123.762 115.916 123.657 116.016C123.606 116.064 123.542 116.089 123.476 116.089ZM119.136 111.518C119.067 111.518 118.997 111.491 118.946 111.436L116.775 109.151C116.675 109.046 116.68 108.879 116.785 108.779C116.89 108.679 117.057 108.684 117.157 108.789L119.327 111.074C119.427 111.179 119.422 111.346 119.318 111.446C119.266 111.493 119.202 111.518 119.136 111.518Z" fill="#0A2315"/>
<path d="M57.0335 157.104C57.0204 157.104 57.0073 157.104 56.993 157.1C56.85 157.079 56.7511 156.944 56.7726 156.801L57.0609 154.912C57.0823 154.77 57.2169 154.671 57.3599 154.692C57.5028 154.714 57.6017 154.848 57.5803 154.991L57.292 156.88C57.2717 157.01 57.1597 157.103 57.0323 157.103L57.0335 157.104ZM57.7971 152.099C57.784 152.099 57.7709 152.099 57.7566 152.096C57.6136 152.074 57.5147 151.94 57.5362 151.797L58.0115 148.681C58.0329 148.539 58.1676 148.44 58.3105 148.461C58.4535 148.483 58.5523 148.617 58.5309 148.76L58.0556 151.876C58.0353 152.005 57.9233 152.098 57.7959 152.098L57.7971 152.099ZM58.7477 145.87C58.7346 145.87 58.7215 145.87 58.7072 145.866C58.5642 145.845 58.4654 145.71 58.4868 145.567L58.9621 142.452C58.9848 142.309 59.1182 142.21 59.2611 142.231C59.4041 142.253 59.503 142.387 59.4815 142.53L59.0062 145.646C58.9859 145.776 58.874 145.868 58.7465 145.868L58.7477 145.87ZM59.6983 139.64C59.6852 139.64 59.6721 139.64 59.6578 139.636C59.5149 139.615 59.416 139.48 59.4374 139.337L59.9127 136.222C59.9342 136.079 60.0688 135.98 60.2117 136.002C60.3547 136.023 60.4536 136.158 60.4321 136.3L59.9568 139.416C59.9366 139.546 59.8246 139.639 59.6971 139.639L59.6983 139.64Z" fill="#0A2315"/>
<path d="M180.077 176.125C180.01 176.125 179.944 176.1 179.893 176.05L177.646 173.84C177.542 173.739 177.541 173.572 177.642 173.468C177.744 173.365 177.91 173.364 178.014 173.466L180.261 175.676C180.364 175.778 180.365 175.944 180.264 176.048C180.213 176.1 180.145 176.127 180.077 176.127V176.125ZM175.584 171.705C175.517 171.705 175.45 171.68 175.399 171.63L173.152 169.419C173.049 169.318 173.048 169.151 173.149 169.048C173.251 168.944 173.417 168.943 173.521 169.044L175.767 171.254C175.871 171.356 175.872 171.522 175.771 171.626C175.72 171.678 175.652 171.705 175.584 171.705ZM171.09 167.284C171.024 167.284 170.957 167.259 170.906 167.209L168.659 164.998C168.555 164.897 168.554 164.731 168.655 164.627C168.758 164.523 168.923 164.522 169.027 164.625L171.274 166.835C171.377 166.936 171.379 167.103 171.277 167.206C171.226 167.259 171.158 167.285 171.09 167.285V167.284Z" fill="#0A2315"/>
<path d="M104.45 172.8C104.338 172.8 104.233 172.728 104.199 172.615L103.278 169.601C103.235 169.463 103.314 169.316 103.453 169.274C103.591 169.231 103.739 169.31 103.78 169.448L104.701 172.461C104.744 172.599 104.666 172.747 104.526 172.788C104.501 172.797 104.475 172.8 104.45 172.8ZM102.608 166.773C102.496 166.773 102.391 166.7 102.357 166.587L101.436 163.574C101.393 163.436 101.472 163.288 101.611 163.247C101.749 163.204 101.897 163.282 101.939 163.42L102.86 166.434C102.903 166.572 102.824 166.719 102.685 166.761C102.66 166.769 102.633 166.773 102.608 166.773ZM100.767 160.746C100.655 160.746 100.55 160.673 100.515 160.56L99.5944 157.547C99.5515 157.409 99.6301 157.261 99.7695 157.219C99.9077 157.176 100.055 157.255 100.097 157.393L101.018 160.406C101.061 160.544 100.982 160.692 100.843 160.734C100.818 160.742 100.792 160.746 100.767 160.746ZM98.9249 154.718C98.8129 154.718 98.7081 154.646 98.6736 154.532L97.7527 151.519C97.7098 151.381 97.7885 151.234 97.9278 151.192C98.066 151.149 98.2137 151.228 98.2554 151.366L99.1763 154.379C99.2192 154.517 99.1405 154.665 99.0012 154.706C98.9761 154.715 98.9499 154.718 98.9249 154.718ZM97.0832 148.691C96.9713 148.691 96.8664 148.618 96.8319 148.505L95.911 145.492C95.8681 145.354 95.9468 145.206 96.0862 145.165C96.2243 145.122 96.3721 145.2 96.4137 145.338L97.3346 148.352C97.3775 148.49 97.2988 148.637 97.1595 148.679C97.1345 148.687 97.1082 148.691 97.0832 148.691ZM95.2415 142.664C95.1296 142.664 95.0247 142.591 94.9902 142.478L94.0693 139.465C94.0265 139.327 94.1051 139.179 94.2445 139.137C94.3827 139.094 94.5304 139.173 94.5721 139.311L95.4929 142.324C95.5358 142.462 95.4572 142.61 95.3178 142.652C95.2928 142.66 95.2666 142.664 95.2415 142.664ZM93.3999 136.636C93.2879 136.636 93.1831 136.564 93.1485 136.45L92.2277 133.437C92.1848 133.299 92.2634 133.152 92.4028 133.11C92.541 133.067 92.6887 133.146 92.7304 133.284L93.6512 136.297C93.6941 136.435 93.6155 136.583 93.4761 136.624C93.4511 136.633 93.4249 136.636 93.3999 136.636Z" fill="#0A2315"/>
<path d="M184.023 100.074C184.006 100.074 183.989 100.073 183.973 100.07L180.898 99.4719C180.755 99.4445 180.662 99.3063 180.691 99.1634C180.718 99.0205 180.856 98.9276 180.998 98.9562L184.073 99.5541C184.216 99.5814 184.309 99.7196 184.28 99.8625C184.256 99.9876 184.145 100.074 184.023 100.074ZM177.854 98.874C177.838 98.874 177.821 98.8728 177.804 98.8693L174.711 98.2666C174.568 98.2393 174.475 98.1011 174.503 97.9582C174.531 97.8153 174.669 97.7224 174.811 97.751L177.904 98.3536C178.047 98.381 178.14 98.5191 178.112 98.662C178.088 98.7871 177.977 98.874 177.854 98.874ZM171.667 97.67C171.65 97.67 171.634 97.6688 171.617 97.6652L168.523 97.0626C168.38 97.0352 168.287 96.8971 168.316 96.7542C168.343 96.6112 168.482 96.5195 168.623 96.5469L171.717 97.1495C171.86 97.1769 171.953 97.3151 171.924 97.458C171.9 97.5831 171.79 97.67 171.667 97.67ZM165.48 96.466C165.463 96.466 165.446 96.4648 165.43 96.4612L162.336 95.8586C162.193 95.8312 162.1 95.693 162.129 95.5501C162.156 95.4072 162.294 95.3155 162.436 95.3429L165.53 95.9455C165.673 95.9729 165.765 96.111 165.737 96.254C165.713 96.379 165.602 96.466 165.48 96.466ZM159.292 95.2619C159.275 95.2619 159.259 95.2607 159.242 95.2571L156.148 94.6545C156.005 94.6271 155.913 94.489 155.941 94.3461C155.969 94.2032 156.107 94.1103 156.248 94.1389L159.342 94.7415C159.485 94.7689 159.578 94.907 159.549 95.0499C159.526 95.175 159.415 95.2619 159.292 95.2619ZM153.105 94.0579C153.088 94.0579 153.071 94.0567 153.055 94.0531L149.961 93.4505C149.818 93.4231 149.725 93.285 149.754 93.142C149.781 93.0003 149.919 92.9074 150.061 92.9348L153.155 93.5374C153.298 93.5648 153.391 93.703 153.362 93.8459C153.338 93.9709 153.227 94.0579 153.105 94.0579ZM146.917 92.8538C146.901 92.8538 146.884 92.8526 146.867 92.8491L143.774 92.2465C143.631 92.2191 143.538 92.0809 143.566 91.938C143.594 91.7951 143.732 91.7034 143.874 91.7308L146.967 92.3334C147.11 92.3608 147.203 92.4989 147.175 92.6419C147.151 92.7669 147.04 92.8538 146.917 92.8538ZM140.73 91.6498C140.713 91.6498 140.697 91.6486 140.68 91.645L137.586 91.0424C137.443 91.015 137.35 90.8769 137.379 90.734C137.406 90.5911 137.545 90.4994 137.686 90.5267L140.78 91.1294C140.923 91.1568 141.016 91.2949 140.987 91.4378C140.963 91.5629 140.853 91.6498 140.73 91.6498ZM134.543 90.4458C134.526 90.4458 134.509 90.4446 134.493 90.441L131.399 89.8396C131.256 89.8122 131.163 89.674 131.192 89.5311C131.219 89.3882 131.357 89.2965 131.499 89.3239L134.593 89.9265C134.736 89.9539 134.829 90.0921 134.8 90.235C134.776 90.36 134.665 90.447 134.543 90.447V90.4458ZM128.355 89.2417C128.339 89.2417 128.322 89.2405 128.305 89.237L125.211 88.6343C125.069 88.607 124.976 88.4688 125.004 88.3259C125.032 88.183 125.17 88.0913 125.312 88.1187L128.405 88.7213C128.548 88.7487 128.641 88.8868 128.613 89.0297C128.589 89.1548 128.478 89.2417 128.355 89.2417Z" fill="#0A2315"/>
</g>
<defs>
<clipPath id="clip0_1_38">
<rect width="218" height="218" fill="white" transform="translate(0.5)"/>
</clipPath>
</defs>
</svg>
