<svg width="13" height="13" viewBox="0 0 13 13" fill="none" xmlns="http://www.w3.org/2000/svg">
<path d="M8.5907 0.0292664H3.92076C1.77181 0.0292664 0.0291481 1.77193 0.0291481 3.92088V8.59082C0.0291481 10.7398 1.77181 12.4824 3.92076 12.4824H8.5907C10.7396 12.4824 12.4823 10.7398 12.4823 8.59082V3.92088C12.4823 1.77193 10.7396 0.0292664 8.5907 0.0292664ZM11.3148 8.59082C11.3148 10.093 10.0929 11.3149 8.5907 11.3149H3.92076C2.4186 11.3149 1.19663 10.093 1.19663 8.59082V3.92088C1.19663 2.41872 2.4186 1.19675 3.92076 1.19675H8.5907C10.0929 1.19675 11.3148 2.41872 11.3148 3.92088V8.59082Z" fill="white"/>
<path d="M6.25566 3.14248C4.53634 3.14248 3.14236 4.53646 3.14236 6.25577C3.14236 7.97509 4.53634 9.36906 6.25566 9.36906C7.97497 9.36906 9.36895 7.97509 9.36895 6.25577C9.36895 4.53646 7.97497 3.14248 6.25566 3.14248ZM6.25566 8.20158C5.18313 8.20158 4.30985 7.3283 4.30985 6.25577C4.30985 5.18247 5.18313 4.30997 6.25566 4.30997C7.32818 4.30997 8.20146 5.18247 8.20146 6.25577C8.20146 7.3283 7.32818 8.20158 6.25566 8.20158Z" fill="white"/>
<path d="M9.60244 3.32387C9.83155 3.32387 10.0173 3.13814 10.0173 2.90903C10.0173 2.67991 9.83155 2.49418 9.60244 2.49418C9.37333 2.49418 9.18759 2.67991 9.18759 2.90903C9.18759 3.13814 9.37333 3.32387 9.60244 3.32387Z" fill="white"/>
</svg>
