<svg width="11" height="11" viewBox="0 0 11 11" fill="none" xmlns="http://www.w3.org/2000/svg">
<path d="M4.27107 10.2843L4.27225 3.57496H6.2729V4.50558C6.2921 4.486 6.31005 4.46523 6.32664 4.4434C6.68094 3.85696 7.21378 3.53816 7.87613 3.43485C8.37972 3.35372 8.89565 3.4011 9.37603 3.5726C10.0161 3.80226 10.3864 4.27888 10.5785 4.91274C10.7192 5.37736 10.7669 5.85576 10.7692 6.3375C10.7759 7.65284 10.773 8.96838 10.7738 10.2839H8.69124C8.69124 9.11578 8.69281 7.94763 8.68671 6.77949C8.68412 6.5605 8.66484 6.34202 8.62903 6.12595C8.54479 5.59245 8.25504 5.29392 7.75213 5.24728C7.06655 5.18372 6.57386 5.45687 6.43332 6.17731C6.38329 6.44407 6.35818 6.71491 6.35833 6.98632C6.34986 8.08558 6.354 9.18505 6.3536 10.2845L4.27107 10.2843Z" fill="white"/>
<path d="M0.872474 10.2843C0.875033 10.2388 0.879954 10.1934 0.879954 10.1479C0.879954 8.00395 0.879954 5.86006 0.879954 3.71623V3.57513H2.96799V3.706C2.96799 5.85311 2.96799 8.00028 2.96799 10.1475C2.96799 10.1932 2.97193 10.2386 2.97409 10.2853L0.872474 10.2843Z" fill="white"/>
<path d="M0.715202 1.28887C0.722485 1.26072 0.730949 1.23278 0.736657 1.20425C0.854758 0.600298 1.4307 0.169524 2.03577 0.2323C2.33539 0.261725 2.61339 0.401394 2.8158 0.624197C3.01821 0.847001 3.13061 1.13704 3.13117 1.43803C3.13117 2.0469 2.65266 2.58965 2.06825 2.64494C1.42381 2.70595 0.858498 2.29072 0.736854 1.66828C0.731342 1.63974 0.722682 1.6118 0.715399 1.58346L0.715202 1.28887Z" fill="white"/>
</svg>
