<svg width="155" height="32" viewBox="0 0 155 32" fill="none" xmlns="http://www.w3.org/2000/svg">
<path d="M110.305 13.4487C109.462 14.3398 108.82 15.3889 108.375 16.5887C107.93 17.7661 107.711 19.0422 107.711 20.4115C107.711 21.6791 107.992 22.8225 108.572 23.8253L108.577 23.8335L108.582 23.8415C109.191 24.8173 110.047 25.581 111.135 26.1309L111.143 26.1349L111.151 26.1387C112.271 26.6628 113.57 26.9145 115.031 26.9145C116.346 26.9145 117.607 26.6588 118.81 26.1486C119.891 25.6997 120.884 25.0112 121.792 24.0974L125.578 27.6728C124.17 29.1927 122.581 30.2764 120.81 30.9396C118.863 31.6436 116.69 32 114.283 32C111.544 32 109.18 31.5209 107.173 30.5814C105.188 29.6399 103.673 28.3461 102.606 26.7021C101.54 25.0338 100.999 23.1069 100.999 20.9036C100.999 18.6745 101.407 16.6289 102.215 14.7603C103.026 12.8858 104.163 11.2725 105.627 9.91467L105.629 9.91294L105.631 9.9112C107.094 8.52963 108.837 7.46 110.868 6.70386C112.92 5.94943 115.199 5.56808 117.71 5.56808C120.189 5.56808 122.363 5.98532 124.245 6.80489C125.944 7.54463 127.23 8.56941 128.129 9.87493L123.4 13.4969C122.773 12.6615 121.993 11.9988 121.062 11.5168C119.961 10.933 118.666 10.6536 117.198 10.6536C115.789 10.6536 114.488 10.8928 113.304 11.3802L113.302 11.3812L113.299 11.3822C112.148 11.8679 111.148 12.5576 110.305 13.4487Z" fill="#BFF6CC"/>
<path fill-rule="evenodd" clip-rule="evenodd" d="M58.7786 26.3228H46.123L43.0367 31.4702H36.2497L51.5133 6.09795H59.4361L66.4111 31.4702H59.8837L58.7786 26.3228ZM57.8329 21.9185L55.4417 10.7809L48.7637 21.9185H57.8329Z" fill="#BFF6CC"/>
<path d="M90.1741 21.5572L93.3855 6.09795H99.8374L94.5556 31.4702H88.9424L79.2201 15.969L76.0001 31.4702H69.5481L74.83 6.09795H80.4437L90.1741 21.5572Z" fill="#BFF6CC"/>
<path d="M137.364 20.8348L136.135 26.801H150.585L149.569 31.4702H128.654L133.936 6.09795H154.332L153.348 10.7672H139.439L138.287 16.3548H150.555L149.641 20.8348H137.364Z" fill="#BFF6CC"/>
<path d="M46.7373 0L0 0L2.84596 5.06156H37.0116L25.3615 25.3748L19.0968 10.8328H12.3847L21.1326 31.7369H27.7284L46.7373 0Z" fill="#BFF6CC"/>
</svg>
