<svg width="12" height="10" viewBox="0 0 12 10" fill="none" xmlns="http://www.w3.org/2000/svg">
<path d="M11.2753 1.31896C10.8657 1.49867 10.4291 1.61778 9.97403 1.67561C10.4422 1.39608 10.7996 0.956805 10.9676 0.427336C10.531 0.687595 10.0491 0.871429 9.53544 0.974018C9.12096 0.532679 8.53021 0.259338 7.88576 0.259338C6.63542 0.259338 5.62881 1.27421 5.62881 2.51836C5.62881 2.69737 5.64395 2.8695 5.68113 3.03337C3.80355 2.94179 2.14216 2.04191 1.02608 0.671071C0.831228 1.00913 0.716934 1.39608 0.716934 1.81263C0.716934 2.59478 1.11972 3.28812 1.7201 3.68952C1.35725 3.68264 1.00129 3.57729 0.699721 3.41136C0.699721 3.41825 0.699721 3.4272 0.699721 3.43615C0.699721 4.53364 1.48256 5.44524 2.50914 5.65523C2.32531 5.7055 2.12495 5.72959 1.91702 5.72959C1.77243 5.72959 1.62646 5.72133 1.48945 5.69104C1.78207 6.58542 2.61242 7.24295 3.59975 7.2643C2.83137 7.86537 1.85574 8.22753 0.799556 8.22753C0.614345 8.22753 0.436708 8.21927 0.259071 8.19654C1.25948 8.84168 2.44511 9.21004 3.72368 9.21004C7.87956 9.21004 10.1517 5.76746 10.1517 2.78344C10.1517 2.6836 10.1482 2.58721 10.1434 2.49151C10.5916 2.17341 10.9682 1.77614 11.2753 1.31896Z" fill="white"/>
</svg>
